%TF.GenerationSoftware,KiCad,Pcbnew,(6.0.11)*%
%TF.CreationDate,2023-02-04T21:30:25-06:00*%
%TF.ProjectId,Euclid Reverse Engineer,4575636c-6964-4205-9265-766572736520,rev?*%
%TF.SameCoordinates,Original*%
%TF.FileFunction,Legend,Bot*%
%TF.FilePolarity,Positive*%
%FSLAX46Y46*%
G04 Gerber Fmt 4.6, Leading zero omitted, Abs format (unit mm)*
G04 Created by KiCad (PCBNEW (6.0.11)) date 2023-02-04 21:30:25*
%MOMM*%
%LPD*%
G01*
G04 APERTURE LIST*
%ADD10C,0.150000*%
%ADD11C,0.120000*%
G04 APERTURE END LIST*
D10*
%TO.C,J1*%
X148857142Y-102726190D02*
X148904761Y-102678571D01*
X148952380Y-102535714D01*
X148952380Y-102440476D01*
X148904761Y-102297619D01*
X148809523Y-102202380D01*
X148714285Y-102154761D01*
X148523809Y-102107142D01*
X148380952Y-102107142D01*
X148190476Y-102154761D01*
X148095238Y-102202380D01*
X148000000Y-102297619D01*
X147952380Y-102440476D01*
X147952380Y-102535714D01*
X148000000Y-102678571D01*
X148047619Y-102726190D01*
X147952380Y-103345238D02*
X147952380Y-103535714D01*
X148000000Y-103630952D01*
X148095238Y-103726190D01*
X148285714Y-103773809D01*
X148619047Y-103773809D01*
X148809523Y-103726190D01*
X148904761Y-103630952D01*
X148952380Y-103535714D01*
X148952380Y-103345238D01*
X148904761Y-103250000D01*
X148809523Y-103154761D01*
X148619047Y-103107142D01*
X148285714Y-103107142D01*
X148095238Y-103154761D01*
X148000000Y-103250000D01*
X147952380Y-103345238D01*
X148952380Y-104202380D02*
X147952380Y-104202380D01*
X148666666Y-104535714D01*
X147952380Y-104869047D01*
X148952380Y-104869047D01*
X148952380Y-108392857D02*
X147952380Y-108392857D01*
X148952380Y-108964285D01*
X147952380Y-108964285D01*
X148857142Y-110011904D02*
X148904761Y-109964285D01*
X148952380Y-109821428D01*
X148952380Y-109726190D01*
X148904761Y-109583333D01*
X148809523Y-109488095D01*
X148714285Y-109440476D01*
X148523809Y-109392857D01*
X148380952Y-109392857D01*
X148190476Y-109440476D01*
X148095238Y-109488095D01*
X148000000Y-109583333D01*
X147952380Y-109726190D01*
X147952380Y-109821428D01*
X148000000Y-109964285D01*
X148047619Y-110011904D01*
X148952380Y-112726190D02*
X147952380Y-112726190D01*
X148952380Y-113297619D01*
X147952380Y-113297619D01*
X147952380Y-113964285D02*
X147952380Y-114154761D01*
X148000000Y-114250000D01*
X148095238Y-114345238D01*
X148285714Y-114392857D01*
X148619047Y-114392857D01*
X148809523Y-114345238D01*
X148904761Y-114250000D01*
X148952380Y-114154761D01*
X148952380Y-113964285D01*
X148904761Y-113869047D01*
X148809523Y-113773809D01*
X148619047Y-113726190D01*
X148285714Y-113726190D01*
X148095238Y-113773809D01*
X148000000Y-113869047D01*
X147952380Y-113964285D01*
%TO.C,R1*%
X156602380Y-108433333D02*
X156126190Y-108100000D01*
X156602380Y-107861904D02*
X155602380Y-107861904D01*
X155602380Y-108242857D01*
X155650000Y-108338095D01*
X155697619Y-108385714D01*
X155792857Y-108433333D01*
X155935714Y-108433333D01*
X156030952Y-108385714D01*
X156078571Y-108338095D01*
X156126190Y-108242857D01*
X156126190Y-107861904D01*
X156602380Y-109385714D02*
X156602380Y-108814285D01*
X156602380Y-109100000D02*
X155602380Y-109100000D01*
X155745238Y-109004761D01*
X155840476Y-108909523D01*
X155888095Y-108814285D01*
%TO.C,D1*%
X153702380Y-110761904D02*
X152702380Y-110761904D01*
X152702380Y-111000000D01*
X152750000Y-111142857D01*
X152845238Y-111238095D01*
X152940476Y-111285714D01*
X153130952Y-111333333D01*
X153273809Y-111333333D01*
X153464285Y-111285714D01*
X153559523Y-111238095D01*
X153654761Y-111142857D01*
X153702380Y-111000000D01*
X153702380Y-110761904D01*
X153702380Y-112285714D02*
X153702380Y-111714285D01*
X153702380Y-112000000D02*
X152702380Y-112000000D01*
X152845238Y-111904761D01*
X152940476Y-111809523D01*
X152988095Y-111714285D01*
%TO.C,D2*%
X148202380Y-110511904D02*
X147202380Y-110511904D01*
X147202380Y-110750000D01*
X147250000Y-110892857D01*
X147345238Y-110988095D01*
X147440476Y-111035714D01*
X147630952Y-111083333D01*
X147773809Y-111083333D01*
X147964285Y-111035714D01*
X148059523Y-110988095D01*
X148154761Y-110892857D01*
X148202380Y-110750000D01*
X148202380Y-110511904D01*
X147297619Y-111464285D02*
X147250000Y-111511904D01*
X147202380Y-111607142D01*
X147202380Y-111845238D01*
X147250000Y-111940476D01*
X147297619Y-111988095D01*
X147392857Y-112035714D01*
X147488095Y-112035714D01*
X147630952Y-111988095D01*
X148202380Y-111416666D01*
X148202380Y-112035714D01*
%TO.C,R2*%
X144902380Y-108070591D02*
X144426190Y-107737258D01*
X144902380Y-107499162D02*
X143902380Y-107499162D01*
X143902380Y-107880115D01*
X143950000Y-107975353D01*
X143997619Y-108022972D01*
X144092857Y-108070591D01*
X144235714Y-108070591D01*
X144330952Y-108022972D01*
X144378571Y-107975353D01*
X144426190Y-107880115D01*
X144426190Y-107499162D01*
X143997619Y-108451543D02*
X143950000Y-108499162D01*
X143902380Y-108594400D01*
X143902380Y-108832496D01*
X143950000Y-108927734D01*
X143997619Y-108975353D01*
X144092857Y-109022972D01*
X144188095Y-109022972D01*
X144330952Y-108975353D01*
X144902380Y-108403924D01*
X144902380Y-109022972D01*
D11*
%TO.C,J1*%
X149250000Y-102250000D02*
X152250000Y-102250000D01*
X152250000Y-102250000D02*
X152250000Y-115000000D01*
X152250000Y-115000000D02*
X149250000Y-115000000D01*
X149250000Y-115000000D02*
X149250000Y-102250000D01*
%TO.C,R1*%
X155272500Y-107762742D02*
X155272500Y-108237258D01*
X154227500Y-107762742D02*
X154227500Y-108237258D01*
%TO.C,D1*%
X154015000Y-112985000D02*
X154015000Y-110700000D01*
X155485000Y-110700000D02*
X155485000Y-112985000D01*
X155485000Y-112985000D02*
X154015000Y-112985000D01*
%TO.C,D2*%
X145515000Y-112985000D02*
X145515000Y-110700000D01*
X146985000Y-112985000D02*
X145515000Y-112985000D01*
X146985000Y-110700000D02*
X146985000Y-112985000D01*
%TO.C,R2*%
X146772500Y-107762742D02*
X146772500Y-108237258D01*
X145727500Y-107762742D02*
X145727500Y-108237258D01*
%TD*%
M02*
