%TF.GenerationSoftware,KiCad,Pcbnew,(6.0.11)*%
%TF.CreationDate,2023-02-05T15:16:19-06:00*%
%TF.ProjectId,Euclid Reverse Engineer,4575636c-6964-4205-9265-766572736520,rev?*%
%TF.SameCoordinates,Original*%
%TF.FileFunction,Legend,Bot*%
%TF.FilePolarity,Positive*%
%FSLAX46Y46*%
G04 Gerber Fmt 4.6, Leading zero omitted, Abs format (unit mm)*
G04 Created by KiCad (PCBNEW (6.0.11)) date 2023-02-05 15:16:19*
%MOMM*%
%LPD*%
G01*
G04 APERTURE LIST*
%ADD10C,0.150000*%
%ADD11C,0.120000*%
G04 APERTURE END LIST*
D10*
%TO.C,J1*%
X148807142Y-102926190D02*
X148854761Y-102878571D01*
X148902380Y-102735714D01*
X148902380Y-102640476D01*
X148854761Y-102497619D01*
X148759523Y-102402380D01*
X148664285Y-102354761D01*
X148473809Y-102307142D01*
X148330952Y-102307142D01*
X148140476Y-102354761D01*
X148045238Y-102402380D01*
X147950000Y-102497619D01*
X147902380Y-102640476D01*
X147902380Y-102735714D01*
X147950000Y-102878571D01*
X147997619Y-102926190D01*
X147902380Y-103545238D02*
X147902380Y-103735714D01*
X147950000Y-103830952D01*
X148045238Y-103926190D01*
X148235714Y-103973809D01*
X148569047Y-103973809D01*
X148759523Y-103926190D01*
X148854761Y-103830952D01*
X148902380Y-103735714D01*
X148902380Y-103545238D01*
X148854761Y-103450000D01*
X148759523Y-103354761D01*
X148569047Y-103307142D01*
X148235714Y-103307142D01*
X148045238Y-103354761D01*
X147950000Y-103450000D01*
X147902380Y-103545238D01*
X148902380Y-104402380D02*
X147902380Y-104402380D01*
X148616666Y-104735714D01*
X147902380Y-105069047D01*
X148902380Y-105069047D01*
X148902380Y-108592857D02*
X147902380Y-108592857D01*
X148902380Y-109164285D01*
X147902380Y-109164285D01*
X148807142Y-110211904D02*
X148854761Y-110164285D01*
X148902380Y-110021428D01*
X148902380Y-109926190D01*
X148854761Y-109783333D01*
X148759523Y-109688095D01*
X148664285Y-109640476D01*
X148473809Y-109592857D01*
X148330952Y-109592857D01*
X148140476Y-109640476D01*
X148045238Y-109688095D01*
X147950000Y-109783333D01*
X147902380Y-109926190D01*
X147902380Y-110021428D01*
X147950000Y-110164285D01*
X147997619Y-110211904D01*
X148902380Y-112926190D02*
X147902380Y-112926190D01*
X148902380Y-113497619D01*
X147902380Y-113497619D01*
X147902380Y-114164285D02*
X147902380Y-114354761D01*
X147950000Y-114450000D01*
X148045238Y-114545238D01*
X148235714Y-114592857D01*
X148569047Y-114592857D01*
X148759523Y-114545238D01*
X148854761Y-114450000D01*
X148902380Y-114354761D01*
X148902380Y-114164285D01*
X148854761Y-114069047D01*
X148759523Y-113973809D01*
X148569047Y-113926190D01*
X148235714Y-113926190D01*
X148045238Y-113973809D01*
X147950000Y-114069047D01*
X147902380Y-114164285D01*
%TO.C,R1*%
X156602380Y-108433333D02*
X156126190Y-108100000D01*
X156602380Y-107861904D02*
X155602380Y-107861904D01*
X155602380Y-108242857D01*
X155650000Y-108338095D01*
X155697619Y-108385714D01*
X155792857Y-108433333D01*
X155935714Y-108433333D01*
X156030952Y-108385714D01*
X156078571Y-108338095D01*
X156126190Y-108242857D01*
X156126190Y-107861904D01*
X156602380Y-109385714D02*
X156602380Y-108814285D01*
X156602380Y-109100000D02*
X155602380Y-109100000D01*
X155745238Y-109004761D01*
X155840476Y-108909523D01*
X155888095Y-108814285D01*
%TO.C,D1*%
X153702380Y-110761904D02*
X152702380Y-110761904D01*
X152702380Y-111000000D01*
X152750000Y-111142857D01*
X152845238Y-111238095D01*
X152940476Y-111285714D01*
X153130952Y-111333333D01*
X153273809Y-111333333D01*
X153464285Y-111285714D01*
X153559523Y-111238095D01*
X153654761Y-111142857D01*
X153702380Y-111000000D01*
X153702380Y-110761904D01*
X153702380Y-112285714D02*
X153702380Y-111714285D01*
X153702380Y-112000000D02*
X152702380Y-112000000D01*
X152845238Y-111904761D01*
X152940476Y-111809523D01*
X152988095Y-111714285D01*
%TO.C,D2*%
X148202380Y-110511904D02*
X147202380Y-110511904D01*
X147202380Y-110750000D01*
X147250000Y-110892857D01*
X147345238Y-110988095D01*
X147440476Y-111035714D01*
X147630952Y-111083333D01*
X147773809Y-111083333D01*
X147964285Y-111035714D01*
X148059523Y-110988095D01*
X148154761Y-110892857D01*
X148202380Y-110750000D01*
X148202380Y-110511904D01*
X147297619Y-111464285D02*
X147250000Y-111511904D01*
X147202380Y-111607142D01*
X147202380Y-111845238D01*
X147250000Y-111940476D01*
X147297619Y-111988095D01*
X147392857Y-112035714D01*
X147488095Y-112035714D01*
X147630952Y-111988095D01*
X148202380Y-111416666D01*
X148202380Y-112035714D01*
%TO.C,R2*%
X144902380Y-108070591D02*
X144426190Y-107737258D01*
X144902380Y-107499162D02*
X143902380Y-107499162D01*
X143902380Y-107880115D01*
X143950000Y-107975353D01*
X143997619Y-108022972D01*
X144092857Y-108070591D01*
X144235714Y-108070591D01*
X144330952Y-108022972D01*
X144378571Y-107975353D01*
X144426190Y-107880115D01*
X144426190Y-107499162D01*
X143997619Y-108451543D02*
X143950000Y-108499162D01*
X143902380Y-108594400D01*
X143902380Y-108832496D01*
X143950000Y-108927734D01*
X143997619Y-108975353D01*
X144092857Y-109022972D01*
X144188095Y-109022972D01*
X144330952Y-108975353D01*
X144902380Y-108403924D01*
X144902380Y-109022972D01*
D11*
%TO.C,J1*%
X149200000Y-102450000D02*
X152200000Y-102450000D01*
X152200000Y-102450000D02*
X152200000Y-115200000D01*
X152200000Y-115200000D02*
X149200000Y-115200000D01*
X149200000Y-115200000D02*
X149200000Y-102450000D01*
%TO.C,R1*%
X155272500Y-107762742D02*
X155272500Y-108237258D01*
X154227500Y-107762742D02*
X154227500Y-108237258D01*
%TO.C,D1*%
X154015000Y-112985000D02*
X154015000Y-110700000D01*
X155485000Y-110700000D02*
X155485000Y-112985000D01*
X155485000Y-112985000D02*
X154015000Y-112985000D01*
%TO.C,D2*%
X145515000Y-112985000D02*
X145515000Y-110700000D01*
X146985000Y-112985000D02*
X145515000Y-112985000D01*
X146985000Y-110700000D02*
X146985000Y-112985000D01*
%TO.C,R2*%
X146772500Y-107762742D02*
X146772500Y-108237258D01*
X145727500Y-107762742D02*
X145727500Y-108237258D01*
%TD*%
M02*
