M48
; DRILL file {KiCad (6.0.11)} date Sun Feb  5 15:16:21 2023
; FORMAT={-:-/ absolute / inch / decimal}
; #@! TF.CreationDate,2023-02-05T15:16:21-06:00
; #@! TF.GenerationSoftware,Kicad,Pcbnew,(6.0.11)
; #@! TF.FileFunction,Plated,1,2,PTH
FMAT,2
INCH
; #@! TA.AperFunction,Plated,PTH,ViaDrill
T1C0.0157
; #@! TA.AperFunction,Plated,PTH,ComponentDrill
T2C0.0197
; #@! TA.AperFunction,Plated,PTH,ComponentDrill
T3C0.0300
; #@! TA.AperFunction,Plated,PTH,ComponentDrill
T4C0.1260
%
G90
G05
T1
X5.7165Y-3.7717
X5.7323Y-4.189
X5.7343Y-4.315
X5.7559Y-4.4882
X5.7579Y-4.065
X5.7835Y-4.189
X5.7854Y-4.315
X5.7972Y-4.5374
X6.0689Y-4.189
X6.0689Y-4.315
X6.0925Y-4.498
X6.1201Y-4.189
X6.1201Y-4.315
X6.122Y-4.0748
X6.1496Y-3.7717
T2
X5.8406Y-3.8661
X5.8406Y-4.6929
X5.8682Y-3.7993
X5.8682Y-3.933
X5.8682Y-4.6261
X5.8682Y-4.7597
X5.935Y-3.7717
X5.935Y-3.9606
X5.935Y-4.5984
X5.935Y-4.7874
X6.0019Y-3.7993
X6.0019Y-3.933
X6.0019Y-4.6261
X6.0019Y-4.7597
X6.0295Y-3.8661
X6.0295Y-4.6929
T3
X5.9331Y-4.0827
X5.9331Y-4.2795
X5.9331Y-4.378
X5.9331Y-4.4764
T4
X5.935Y-3.8661
X5.935Y-4.6929
T0
M30
