%TF.GenerationSoftware,KiCad,Pcbnew,(6.0.11)*%
%TF.CreationDate,2023-02-05T15:16:19-06:00*%
%TF.ProjectId,Euclid Reverse Engineer,4575636c-6964-4205-9265-766572736520,rev?*%
%TF.SameCoordinates,Original*%
%TF.FileFunction,Copper,L2,Bot*%
%TF.FilePolarity,Positive*%
%FSLAX46Y46*%
G04 Gerber Fmt 4.6, Leading zero omitted, Abs format (unit mm)*
G04 Created by KiCad (PCBNEW (6.0.11)) date 2023-02-05 15:16:19*
%MOMM*%
%LPD*%
G01*
G04 APERTURE LIST*
G04 Aperture macros list*
%AMRoundRect*
0 Rectangle with rounded corners*
0 $1 Rounding radius*
0 $2 $3 $4 $5 $6 $7 $8 $9 X,Y pos of 4 corners*
0 Add a 4 corners polygon primitive as box body*
4,1,4,$2,$3,$4,$5,$6,$7,$8,$9,$2,$3,0*
0 Add four circle primitives for the rounded corners*
1,1,$1+$1,$2,$3*
1,1,$1+$1,$4,$5*
1,1,$1+$1,$6,$7*
1,1,$1+$1,$8,$9*
0 Add four rect primitives between the rounded corners*
20,1,$1+$1,$2,$3,$4,$5,0*
20,1,$1+$1,$4,$5,$6,$7,0*
20,1,$1+$1,$6,$7,$8,$9,0*
20,1,$1+$1,$8,$9,$2,$3,0*%
G04 Aperture macros list end*
%TA.AperFunction,ComponentPad*%
%ADD10C,2.300000*%
%TD*%
%TA.AperFunction,ComponentPad*%
%ADD11C,1.700000*%
%TD*%
%TA.AperFunction,ComponentPad*%
%ADD12C,0.800000*%
%TD*%
%TA.AperFunction,ComponentPad*%
%ADD13C,6.400000*%
%TD*%
%TA.AperFunction,SMDPad,CuDef*%
%ADD14RoundRect,0.200000X-0.275000X0.200000X-0.275000X-0.200000X0.275000X-0.200000X0.275000X0.200000X0*%
%TD*%
%TA.AperFunction,SMDPad,CuDef*%
%ADD15RoundRect,0.218750X0.256250X-0.218750X0.256250X0.218750X-0.256250X0.218750X-0.256250X-0.218750X0*%
%TD*%
%TA.AperFunction,ViaPad*%
%ADD16C,0.800000*%
%TD*%
%TA.AperFunction,Conductor*%
%ADD17C,0.500000*%
%TD*%
G04 APERTURE END LIST*
D10*
%TO.P,J1,1,Pin_1*%
%TO.N,/sig*%
X150700000Y-113700000D03*
D11*
%TO.P,J1,2,Pin_2*%
%TO.N,/gnd*%
X150700000Y-111200000D03*
D10*
%TO.P,J1,3,Pin_3*%
%TO.N,/vcc*%
X150700000Y-108700000D03*
%TO.P,J1,4,Pin_4*%
%TO.N,/gnd*%
X150700000Y-103700000D03*
%TD*%
D12*
%TO.P,H2,1,1*%
%TO.N,/gnd*%
X148350000Y-98200000D03*
X149052944Y-99897056D03*
X152447056Y-96502944D03*
X149052944Y-96502944D03*
X150750000Y-100600000D03*
D13*
X150750000Y-98200000D03*
D12*
X150750000Y-95800000D03*
X152447056Y-99897056D03*
X153150000Y-98200000D03*
%TD*%
D13*
%TO.P,H1,1,1*%
%TO.N,/sig*%
X150750000Y-119200000D03*
D12*
X149052944Y-120897056D03*
X153150000Y-119200000D03*
X149052944Y-117502944D03*
X152447056Y-117502944D03*
X150750000Y-121600000D03*
X152447056Y-120897056D03*
X150750000Y-116800000D03*
X148350000Y-119200000D03*
%TD*%
D14*
%TO.P,R1,1*%
%TO.N,/vcc*%
X154750000Y-107175000D03*
%TO.P,R1,2*%
%TO.N,/r to d 2*%
X154750000Y-108825000D03*
%TD*%
D15*
%TO.P,D1,1,K*%
%TO.N,/sig*%
X154750000Y-112287500D03*
%TO.P,D1,2,A*%
%TO.N,/r to d 2*%
X154750000Y-110712500D03*
%TD*%
%TO.P,D2,1,K*%
%TO.N,/sig*%
X146250000Y-112287500D03*
%TO.P,D2,2,A*%
%TO.N,/r to d 1*%
X146250000Y-110712500D03*
%TD*%
D14*
%TO.P,R2,1*%
%TO.N,/vcc*%
X146250000Y-107175000D03*
%TO.P,R2,2*%
%TO.N,/r to d 1*%
X146250000Y-108825000D03*
%TD*%
D16*
%TO.N,/gnd*%
X147250000Y-115250000D03*
X146250000Y-103250000D03*
X156200000Y-95800000D03*
X154750000Y-114250000D03*
X155500000Y-103500000D03*
X146200000Y-114000000D03*
X145200000Y-95800000D03*
%TO.N,/vcc*%
X146900000Y-106400000D03*
X145600000Y-106400000D03*
X155450000Y-106400000D03*
X154150000Y-106400000D03*
%TO.N,/r to d 2*%
X154150000Y-109600000D03*
X155450000Y-109600000D03*
%TO.N,/r to d 1*%
X146950000Y-109600000D03*
X145650000Y-109600000D03*
%TD*%
D17*
%TO.N,/sig*%
X153625000Y-113375000D02*
X150875000Y-113375000D01*
X146250000Y-112287500D02*
X147337500Y-113375000D01*
X154750000Y-112537500D02*
X154712500Y-112537500D01*
X147337500Y-113375000D02*
X150875000Y-113375000D01*
X153625000Y-113375000D02*
X154712500Y-112287500D01*
X150750000Y-113500000D02*
X150750000Y-119200000D01*
X150875000Y-116225000D02*
X150750000Y-116350000D01*
X154712500Y-112287500D02*
X154750000Y-112287500D01*
%TO.N,/vcc*%
X149675000Y-107175000D02*
X146250000Y-107175000D01*
X150875000Y-108375000D02*
X152250000Y-107000000D01*
X150875000Y-108375000D02*
X149675000Y-107175000D01*
X154575000Y-107000000D02*
X154750000Y-107175000D01*
X152250000Y-107000000D02*
X154575000Y-107000000D01*
%TO.N,/r to d 2*%
X154750000Y-108825000D02*
X154750000Y-110962500D01*
%TO.N,/r to d 1*%
X146250000Y-108825000D02*
X146250000Y-110712500D01*
%TD*%
%TA.AperFunction,Conductor*%
%TO.N,/gnd*%
G36*
X148924232Y-94881162D02*
G01*
X148970725Y-94934818D01*
X148980829Y-95005092D01*
X148951335Y-95069672D01*
X148924736Y-95092832D01*
X148633848Y-95281737D01*
X148628493Y-95285628D01*
X148360760Y-95502434D01*
X148352292Y-95514692D01*
X148358625Y-95525782D01*
X150737188Y-97904345D01*
X150751132Y-97911959D01*
X150752965Y-97911828D01*
X150759580Y-97907577D01*
X153140509Y-95526648D01*
X153147649Y-95513572D01*
X153140191Y-95503203D01*
X152871507Y-95285628D01*
X152866152Y-95281737D01*
X152575264Y-95092832D01*
X152529028Y-95038956D01*
X152519258Y-94968635D01*
X152549058Y-94904195D01*
X152608967Y-94866096D01*
X152643889Y-94861160D01*
X156462683Y-94861160D01*
X156484563Y-94863074D01*
X156489145Y-94863882D01*
X156500000Y-94865796D01*
X156510856Y-94863882D01*
X156521878Y-94863882D01*
X156521878Y-94864439D01*
X156534152Y-94863848D01*
X156677762Y-94875150D01*
X156697288Y-94878243D01*
X156861036Y-94917555D01*
X156879835Y-94923663D01*
X157035409Y-94988103D01*
X157053021Y-94997076D01*
X157121365Y-95038956D01*
X157196609Y-95085064D01*
X157212598Y-95096680D01*
X157340655Y-95206049D01*
X157354630Y-95220025D01*
X157463998Y-95348076D01*
X157475619Y-95364069D01*
X157563612Y-95507655D01*
X157572580Y-95525254D01*
X157637027Y-95680835D01*
X157643137Y-95699638D01*
X157682452Y-95863382D01*
X157685545Y-95882910D01*
X157696838Y-96026353D01*
X157696241Y-96038789D01*
X157696777Y-96038789D01*
X157696777Y-96049814D01*
X157694864Y-96060668D01*
X157696778Y-96071521D01*
X157696778Y-96071524D01*
X157697585Y-96076097D01*
X157699500Y-96097980D01*
X157699500Y-98451782D01*
X157679498Y-98519903D01*
X157625842Y-98566396D01*
X157555568Y-98576500D01*
X157490988Y-98547006D01*
X157459305Y-98505032D01*
X157454933Y-98495655D01*
X157374035Y-98322171D01*
X157238495Y-98128599D01*
X157071401Y-97961505D01*
X156877829Y-97825965D01*
X156872851Y-97823644D01*
X156872848Y-97823642D01*
X156668645Y-97728420D01*
X156668643Y-97728419D01*
X156663663Y-97726097D01*
X156658355Y-97724675D01*
X156658353Y-97724674D01*
X156440723Y-97666361D01*
X156440722Y-97666361D01*
X156435408Y-97664937D01*
X156332318Y-97655918D01*
X156261690Y-97649738D01*
X156261683Y-97649738D01*
X156258966Y-97649500D01*
X156141034Y-97649500D01*
X156138317Y-97649738D01*
X156138310Y-97649738D01*
X156067682Y-97655918D01*
X155964592Y-97664937D01*
X155959278Y-97666361D01*
X155959277Y-97666361D01*
X155741647Y-97724674D01*
X155741645Y-97724675D01*
X155736337Y-97726097D01*
X155731357Y-97728419D01*
X155731355Y-97728420D01*
X155527152Y-97823642D01*
X155527149Y-97823644D01*
X155522171Y-97825965D01*
X155328599Y-97961505D01*
X155161505Y-98128599D01*
X155158348Y-98133107D01*
X155158346Y-98133110D01*
X155109433Y-98202965D01*
X155025965Y-98322170D01*
X155023642Y-98327152D01*
X155023639Y-98327157D01*
X154948618Y-98488041D01*
X154926097Y-98536337D01*
X154924675Y-98541645D01*
X154924674Y-98541647D01*
X154915335Y-98576500D01*
X154864937Y-98764592D01*
X154844341Y-99000000D01*
X154864937Y-99235408D01*
X154866361Y-99240722D01*
X154866361Y-99240723D01*
X154920208Y-99441683D01*
X154926097Y-99463663D01*
X154928419Y-99468643D01*
X154928420Y-99468645D01*
X155021942Y-99669201D01*
X155025965Y-99677829D01*
X155161505Y-99871401D01*
X155328599Y-100038495D01*
X155522171Y-100174035D01*
X155527149Y-100176356D01*
X155527152Y-100176358D01*
X155731355Y-100271580D01*
X155736337Y-100273903D01*
X155741645Y-100275325D01*
X155741647Y-100275326D01*
X155959277Y-100333639D01*
X155964592Y-100335063D01*
X156067682Y-100344082D01*
X156138310Y-100350262D01*
X156138317Y-100350262D01*
X156141034Y-100350500D01*
X156258966Y-100350500D01*
X156261683Y-100350262D01*
X156261690Y-100350262D01*
X156332318Y-100344082D01*
X156435408Y-100335063D01*
X156440723Y-100333639D01*
X156658353Y-100275326D01*
X156658355Y-100275325D01*
X156663663Y-100273903D01*
X156668645Y-100271580D01*
X156872848Y-100176358D01*
X156872851Y-100176356D01*
X156877829Y-100174035D01*
X157071401Y-100038495D01*
X157238495Y-99871401D01*
X157241655Y-99866889D01*
X157370878Y-99682339D01*
X157370881Y-99682334D01*
X157374035Y-99677830D01*
X157376358Y-99672848D01*
X157376361Y-99672843D01*
X157459305Y-99494968D01*
X157506222Y-99441683D01*
X157574500Y-99422222D01*
X157642460Y-99442764D01*
X157688525Y-99496787D01*
X157699500Y-99548218D01*
X157699500Y-107459055D01*
X157697200Y-107483020D01*
X157694906Y-107494862D01*
X157696637Y-107505748D01*
X157696557Y-107510504D01*
X157697527Y-107529866D01*
X157685090Y-107745568D01*
X157684082Y-107755786D01*
X157649984Y-107999323D01*
X157648147Y-108009425D01*
X157594335Y-108249368D01*
X157591682Y-108259287D01*
X157576889Y-108306750D01*
X157538318Y-108430506D01*
X157532205Y-108450118D01*
X157530024Y-108456142D01*
X157530093Y-108456167D01*
X157529049Y-108459084D01*
X157527878Y-108461914D01*
X157526989Y-108464843D01*
X157526986Y-108464851D01*
X157526313Y-108467070D01*
X157521466Y-108478344D01*
X157518079Y-108487831D01*
X157512627Y-108497411D01*
X157510780Y-108508278D01*
X157510779Y-108508281D01*
X157508268Y-108523051D01*
X157504617Y-108538537D01*
X154444462Y-118619049D01*
X154405535Y-118678422D01*
X154340687Y-118707324D01*
X154270508Y-118696579D01*
X154217279Y-118649598D01*
X154199446Y-118602159D01*
X154179221Y-118474467D01*
X154178705Y-118471206D01*
X154083742Y-118116801D01*
X153952255Y-117774264D01*
X153785682Y-117447348D01*
X153585851Y-117139634D01*
X153354949Y-116854494D01*
X153095506Y-116595051D01*
X152810366Y-116364149D01*
X152502652Y-116164318D01*
X152499718Y-116162823D01*
X152499711Y-116162819D01*
X152178676Y-115999243D01*
X152175736Y-115997745D01*
X151833199Y-115866258D01*
X151478794Y-115771295D01*
X151475535Y-115770779D01*
X151475531Y-115770778D01*
X151449547Y-115766663D01*
X151406789Y-115759891D01*
X151342637Y-115729479D01*
X151305110Y-115669211D01*
X151300500Y-115635442D01*
X151300500Y-115099691D01*
X151320502Y-115031570D01*
X151371068Y-114986539D01*
X151440623Y-114952465D01*
X151440627Y-114952463D01*
X151445264Y-114950191D01*
X151526492Y-114892252D01*
X151635242Y-114814681D01*
X151639445Y-114811683D01*
X151808397Y-114643320D01*
X151947582Y-114449623D01*
X151996106Y-114351444D01*
X152050969Y-114240437D01*
X152050970Y-114240435D01*
X152053263Y-114235795D01*
X152120384Y-114014872D01*
X152159325Y-113955507D01*
X152224179Y-113926620D01*
X152240943Y-113925500D01*
X153610007Y-113925500D01*
X153615284Y-113925611D01*
X153677294Y-113928210D01*
X153688848Y-113925500D01*
X153719662Y-113918273D01*
X153731333Y-113916110D01*
X153746229Y-113914069D01*
X153774432Y-113910206D01*
X153788230Y-113904235D01*
X153809499Y-113897201D01*
X153815775Y-113895729D01*
X153824136Y-113893768D01*
X153831661Y-113889631D01*
X153831664Y-113889630D01*
X153862268Y-113872805D01*
X153872913Y-113867589D01*
X153912855Y-113850305D01*
X153924541Y-113840842D01*
X153943126Y-113828354D01*
X153956308Y-113821107D01*
X153964422Y-113814103D01*
X153988958Y-113789567D01*
X153998759Y-113780742D01*
X154023392Y-113760794D01*
X154023393Y-113760793D01*
X154030070Y-113755386D01*
X154040966Y-113740054D01*
X154054576Y-113723949D01*
X154653619Y-113124905D01*
X154715932Y-113090880D01*
X154742715Y-113088000D01*
X154787785Y-113088000D01*
X154792030Y-113087418D01*
X154792037Y-113087418D01*
X154890923Y-113073872D01*
X154890926Y-113073871D01*
X154899432Y-113072706D01*
X154984573Y-113035862D01*
X155034611Y-113025500D01*
X155046594Y-113025500D01*
X155092550Y-113019939D01*
X155123234Y-113016226D01*
X155123236Y-113016226D01*
X155131273Y-113015253D01*
X155263548Y-112962881D01*
X155376867Y-112876867D01*
X155462881Y-112763548D01*
X155515253Y-112631273D01*
X155517634Y-112611602D01*
X155525044Y-112550360D01*
X155525500Y-112546594D01*
X155525500Y-112028406D01*
X155515253Y-111943727D01*
X155462881Y-111811452D01*
X155457691Y-111804614D01*
X155453471Y-111797125D01*
X155455554Y-111795951D01*
X155434765Y-111741324D01*
X155449395Y-111671851D01*
X155499262Y-111621316D01*
X155560381Y-111605500D01*
X155674000Y-111605500D01*
X155677346Y-111605140D01*
X155677351Y-111605140D01*
X155735573Y-111598881D01*
X155735580Y-111598880D01*
X155738937Y-111598519D01*
X155742238Y-111597801D01*
X155789277Y-111587569D01*
X155789292Y-111587565D01*
X155791279Y-111587133D01*
X155793242Y-111586570D01*
X155793250Y-111586568D01*
X155821916Y-111578347D01*
X155821919Y-111578346D01*
X155829488Y-111576175D01*
X155914730Y-111526322D01*
X155921380Y-111522433D01*
X155921384Y-111522430D01*
X155926401Y-111519496D01*
X155980057Y-111473003D01*
X156022238Y-111428267D01*
X156026320Y-111420239D01*
X156026322Y-111420236D01*
X156070484Y-111333381D01*
X156070485Y-111333377D01*
X156073123Y-111328190D01*
X156077077Y-111314726D01*
X156084549Y-111289277D01*
X156093125Y-111260069D01*
X156096164Y-111238937D01*
X156100384Y-111209580D01*
X156105500Y-111174000D01*
X156105500Y-109871940D01*
X156114593Y-109824944D01*
X156128765Y-109789691D01*
X156128767Y-109789684D01*
X156131601Y-109782634D01*
X156155490Y-109614778D01*
X156155645Y-109600000D01*
X156153840Y-109585080D01*
X156150224Y-109555201D01*
X156135276Y-109431680D01*
X156113634Y-109374406D01*
X156105500Y-109329868D01*
X156105500Y-108426000D01*
X156098519Y-108361063D01*
X156092982Y-108335607D01*
X156087569Y-108310723D01*
X156087565Y-108310708D01*
X156087133Y-108308721D01*
X156076175Y-108270512D01*
X156063809Y-108249368D01*
X156022433Y-108178620D01*
X156022430Y-108178616D01*
X156019496Y-108173599D01*
X155973003Y-108119943D01*
X155970687Y-108117759D01*
X155970680Y-108117752D01*
X155941319Y-108090068D01*
X155905477Y-108028783D01*
X155908458Y-107957849D01*
X155945244Y-107903169D01*
X155977652Y-107875087D01*
X155977653Y-107875086D01*
X155980057Y-107873003D01*
X156022238Y-107828267D01*
X156026320Y-107820239D01*
X156026322Y-107820236D01*
X156070484Y-107733381D01*
X156070485Y-107733377D01*
X156073123Y-107728190D01*
X156093125Y-107660069D01*
X156094614Y-107649718D01*
X156100357Y-107609772D01*
X156105500Y-107574000D01*
X156105500Y-106671940D01*
X156114593Y-106624944D01*
X156128765Y-106589691D01*
X156128767Y-106589684D01*
X156131601Y-106582634D01*
X156140332Y-106521285D01*
X156154909Y-106418862D01*
X156154909Y-106418859D01*
X156155490Y-106414778D01*
X156155645Y-106400000D01*
X156153840Y-106385080D01*
X156136188Y-106239220D01*
X156135276Y-106231680D01*
X156113634Y-106174406D01*
X156106022Y-106132727D01*
X156105681Y-106132745D01*
X156105538Y-106130075D01*
X156105500Y-106129868D01*
X156105500Y-106126000D01*
X156098519Y-106061063D01*
X156092982Y-106035607D01*
X156087569Y-106010723D01*
X156087565Y-106010708D01*
X156087133Y-106008721D01*
X156076175Y-105970512D01*
X156019496Y-105873599D01*
X155973003Y-105819943D01*
X155928267Y-105777762D01*
X155920239Y-105773680D01*
X155920236Y-105773678D01*
X155833381Y-105729516D01*
X155833377Y-105729515D01*
X155828190Y-105726877D01*
X155822604Y-105725237D01*
X155822602Y-105725236D01*
X155782400Y-105713432D01*
X155760069Y-105706875D01*
X155755613Y-105706234D01*
X155755607Y-105706233D01*
X155709772Y-105699643D01*
X155674000Y-105694500D01*
X153926000Y-105694500D01*
X153922654Y-105694860D01*
X153922649Y-105694860D01*
X153864427Y-105701119D01*
X153864420Y-105701120D01*
X153861063Y-105701481D01*
X153857763Y-105702199D01*
X153857762Y-105702199D01*
X153810723Y-105712431D01*
X153810708Y-105712435D01*
X153808721Y-105712867D01*
X153806758Y-105713430D01*
X153806750Y-105713432D01*
X153778084Y-105721653D01*
X153778081Y-105721654D01*
X153770512Y-105723825D01*
X153763712Y-105727802D01*
X153678620Y-105777567D01*
X153678616Y-105777570D01*
X153673599Y-105780504D01*
X153619943Y-105826997D01*
X153577762Y-105871733D01*
X153573680Y-105879761D01*
X153573678Y-105879764D01*
X153530994Y-105963712D01*
X153526877Y-105971810D01*
X153506875Y-106039931D01*
X153506234Y-106044387D01*
X153506233Y-106044393D01*
X153503353Y-106064427D01*
X153494500Y-106126000D01*
X153494500Y-106130507D01*
X153494179Y-106134992D01*
X153493396Y-106134936D01*
X153485893Y-106174834D01*
X153466524Y-106224513D01*
X153465532Y-106232046D01*
X153465532Y-106232047D01*
X153451327Y-106339946D01*
X153422605Y-106404873D01*
X153363339Y-106443965D01*
X153326405Y-106449500D01*
X152264993Y-106449500D01*
X152259717Y-106449389D01*
X152255310Y-106449204D01*
X152197706Y-106446790D01*
X152189341Y-106448752D01*
X152155338Y-106456727D01*
X152143667Y-106458890D01*
X152128771Y-106460931D01*
X152100568Y-106464794D01*
X152092684Y-106468206D01*
X152092683Y-106468206D01*
X152086770Y-106470765D01*
X152065501Y-106477799D01*
X152050864Y-106481232D01*
X152043339Y-106485369D01*
X152043336Y-106485370D01*
X152012732Y-106502195D01*
X152002087Y-106507411D01*
X151962145Y-106524695D01*
X151950459Y-106534158D01*
X151931875Y-106546645D01*
X151918692Y-106553893D01*
X151910578Y-106560897D01*
X151886042Y-106585433D01*
X151876241Y-106594258D01*
X151851608Y-106614206D01*
X151844930Y-106619614D01*
X151839957Y-106626612D01*
X151839952Y-106626617D01*
X151834032Y-106634948D01*
X151820421Y-106651054D01*
X151206927Y-107264548D01*
X151144615Y-107298574D01*
X151081997Y-107294619D01*
X151081668Y-107295864D01*
X151076669Y-107294543D01*
X151071794Y-107292817D01*
X151041601Y-107287439D01*
X150842060Y-107251894D01*
X150842056Y-107251894D01*
X150836972Y-107250988D01*
X150757010Y-107250011D01*
X150603641Y-107248137D01*
X150603639Y-107248137D01*
X150598471Y-107248074D01*
X150593358Y-107248856D01*
X150588977Y-107249163D01*
X150519627Y-107233964D01*
X150491089Y-107212565D01*
X150074882Y-106796358D01*
X150071229Y-106792549D01*
X150035015Y-106753167D01*
X150029201Y-106746844D01*
X149992198Y-106723901D01*
X149982448Y-106717200D01*
X149947783Y-106690888D01*
X149933804Y-106685354D01*
X149913801Y-106675293D01*
X149901014Y-106667365D01*
X149892763Y-106664968D01*
X149892761Y-106664967D01*
X149859228Y-106655225D01*
X149847995Y-106651379D01*
X149807547Y-106635364D01*
X149799006Y-106634466D01*
X149799005Y-106634466D01*
X149792592Y-106633792D01*
X149770617Y-106629480D01*
X149756175Y-106625285D01*
X149748692Y-106624736D01*
X149747792Y-106624669D01*
X149747781Y-106624669D01*
X149745485Y-106624500D01*
X149710783Y-106624500D01*
X149697613Y-106623810D01*
X149687384Y-106622735D01*
X149657546Y-106619599D01*
X149649081Y-106621031D01*
X149649072Y-106621031D01*
X149639000Y-106622735D01*
X149617987Y-106624500D01*
X147720844Y-106624500D01*
X147652723Y-106604498D01*
X147606230Y-106550842D01*
X147596101Y-106480748D01*
X147605490Y-106414778D01*
X147605645Y-106400000D01*
X147603840Y-106385080D01*
X147586188Y-106239220D01*
X147585276Y-106231680D01*
X147563634Y-106174406D01*
X147556022Y-106132727D01*
X147555681Y-106132745D01*
X147555538Y-106130075D01*
X147555500Y-106129868D01*
X147555500Y-106126000D01*
X147548519Y-106061063D01*
X147542982Y-106035607D01*
X147537569Y-106010723D01*
X147537565Y-106010708D01*
X147537133Y-106008721D01*
X147526175Y-105970512D01*
X147469496Y-105873599D01*
X147423003Y-105819943D01*
X147378267Y-105777762D01*
X147370239Y-105773680D01*
X147370236Y-105773678D01*
X147283381Y-105729516D01*
X147283377Y-105729515D01*
X147278190Y-105726877D01*
X147272604Y-105725237D01*
X147272602Y-105725236D01*
X147232400Y-105713432D01*
X147210069Y-105706875D01*
X147205613Y-105706234D01*
X147205607Y-105706233D01*
X147159772Y-105699643D01*
X147124000Y-105694500D01*
X145376000Y-105694500D01*
X145372654Y-105694860D01*
X145372649Y-105694860D01*
X145314427Y-105701119D01*
X145314420Y-105701120D01*
X145311063Y-105701481D01*
X145307763Y-105702199D01*
X145307762Y-105702199D01*
X145260723Y-105712431D01*
X145260708Y-105712435D01*
X145258721Y-105712867D01*
X145256758Y-105713430D01*
X145256750Y-105713432D01*
X145228084Y-105721653D01*
X145228081Y-105721654D01*
X145220512Y-105723825D01*
X145213712Y-105727802D01*
X145128620Y-105777567D01*
X145128616Y-105777570D01*
X145123599Y-105780504D01*
X145069943Y-105826997D01*
X145027762Y-105871733D01*
X145023680Y-105879761D01*
X145023678Y-105879764D01*
X144980994Y-105963712D01*
X144976877Y-105971810D01*
X144956875Y-106039931D01*
X144956234Y-106044387D01*
X144956233Y-106044393D01*
X144953353Y-106064427D01*
X144944500Y-106126000D01*
X144944500Y-106130507D01*
X144944179Y-106134992D01*
X144943396Y-106134936D01*
X144935893Y-106174834D01*
X144916524Y-106224513D01*
X144894394Y-106392611D01*
X144912999Y-106561135D01*
X144915609Y-106568267D01*
X144936826Y-106626245D01*
X144944500Y-106669546D01*
X144944500Y-107574000D01*
X144951481Y-107638937D01*
X144952199Y-107642237D01*
X144952199Y-107642238D01*
X144962431Y-107689277D01*
X144962435Y-107689292D01*
X144962867Y-107691279D01*
X144973825Y-107729488D01*
X144977802Y-107736288D01*
X145020924Y-107810020D01*
X145030504Y-107826401D01*
X145076997Y-107880057D01*
X145079309Y-107882237D01*
X145079311Y-107882239D01*
X145108682Y-107909932D01*
X145121733Y-107922238D01*
X145122811Y-107922786D01*
X145164556Y-107975260D01*
X145171702Y-108045896D01*
X145139525Y-108109182D01*
X145130362Y-108117968D01*
X145122351Y-108124910D01*
X145122348Y-108124913D01*
X145119943Y-108126997D01*
X145077762Y-108171733D01*
X145073680Y-108179761D01*
X145073678Y-108179764D01*
X145033244Y-108259287D01*
X145026877Y-108271810D01*
X145006875Y-108339931D01*
X145006234Y-108344387D01*
X145006233Y-108344393D01*
X145003353Y-108364427D01*
X144994500Y-108426000D01*
X144994500Y-109329065D01*
X144985893Y-109374834D01*
X144966524Y-109424513D01*
X144965532Y-109432046D01*
X144965532Y-109432047D01*
X144948225Y-109563514D01*
X144944394Y-109592611D01*
X144962999Y-109761135D01*
X144965609Y-109768267D01*
X144986826Y-109826245D01*
X144994500Y-109869546D01*
X144994500Y-111174000D01*
X144998673Y-111212812D01*
X144999042Y-111216245D01*
X144986436Y-111286114D01*
X144962620Y-111311694D01*
X144986981Y-111314726D01*
X145041510Y-111360192D01*
X145045588Y-111366701D01*
X145063376Y-111397115D01*
X145080504Y-111426401D01*
X145126997Y-111480057D01*
X145129309Y-111482237D01*
X145129311Y-111482239D01*
X145140002Y-111492320D01*
X145171733Y-111522238D01*
X145179761Y-111526320D01*
X145179764Y-111526322D01*
X145266619Y-111570484D01*
X145266623Y-111570485D01*
X145271810Y-111573123D01*
X145277396Y-111574763D01*
X145277398Y-111574764D01*
X145282204Y-111576175D01*
X145339931Y-111593125D01*
X145344387Y-111593766D01*
X145344393Y-111593767D01*
X145379964Y-111598881D01*
X145426000Y-111605500D01*
X145439619Y-111605500D01*
X145507740Y-111625502D01*
X145554233Y-111679158D01*
X145564337Y-111749432D01*
X145544802Y-111796152D01*
X145546529Y-111797125D01*
X145542309Y-111804614D01*
X145537119Y-111811452D01*
X145484747Y-111943727D01*
X145474500Y-112028406D01*
X145474500Y-112546594D01*
X145474956Y-112550360D01*
X145482367Y-112611602D01*
X145484747Y-112631273D01*
X145537119Y-112763548D01*
X145623133Y-112876867D01*
X145736452Y-112962881D01*
X145868727Y-113015253D01*
X145876764Y-113016226D01*
X145876766Y-113016226D01*
X145907450Y-113019939D01*
X145953406Y-113025500D01*
X146157285Y-113025500D01*
X146225406Y-113045502D01*
X146246380Y-113062405D01*
X146937620Y-113753645D01*
X146941271Y-113757452D01*
X146983299Y-113803156D01*
X146990604Y-113807685D01*
X146990605Y-113807686D01*
X147020283Y-113826087D01*
X147030053Y-113832801D01*
X147064716Y-113859112D01*
X147078693Y-113864646D01*
X147098702Y-113874709D01*
X147104188Y-113878111D01*
X147104192Y-113878113D01*
X147111486Y-113882635D01*
X147119728Y-113885029D01*
X147119731Y-113885031D01*
X147153284Y-113894779D01*
X147164497Y-113898618D01*
X147204953Y-113914635D01*
X147213496Y-113915533D01*
X147213497Y-113915533D01*
X147219902Y-113916206D01*
X147241880Y-113920518D01*
X147256325Y-113924715D01*
X147262908Y-113925198D01*
X147262911Y-113925199D01*
X147264708Y-113925331D01*
X147264719Y-113925331D01*
X147267015Y-113925500D01*
X147301719Y-113925500D01*
X147314890Y-113926190D01*
X147354954Y-113930401D01*
X147363419Y-113928969D01*
X147363428Y-113928969D01*
X147373500Y-113927265D01*
X147394513Y-113925500D01*
X149163099Y-113925500D01*
X149231220Y-113945502D01*
X149277713Y-113999158D01*
X149286015Y-114023798D01*
X149311131Y-114135245D01*
X149313073Y-114140027D01*
X149313074Y-114140031D01*
X149351960Y-114235795D01*
X149400867Y-114356239D01*
X149525493Y-114559609D01*
X149681660Y-114739894D01*
X149865176Y-114892252D01*
X150071112Y-115012591D01*
X150075941Y-115014435D01*
X150118448Y-115030667D01*
X150174952Y-115073654D01*
X150199245Y-115140365D01*
X150199500Y-115148377D01*
X150199500Y-115635442D01*
X150179498Y-115703563D01*
X150125842Y-115750056D01*
X150093212Y-115759890D01*
X150050453Y-115766663D01*
X150024469Y-115770778D01*
X150024465Y-115770779D01*
X150021206Y-115771295D01*
X149666801Y-115866258D01*
X149324264Y-115997745D01*
X149321324Y-115999243D01*
X149000289Y-116162819D01*
X149000282Y-116162823D01*
X148997348Y-116164318D01*
X148689634Y-116364149D01*
X148404494Y-116595051D01*
X148145051Y-116854494D01*
X147914149Y-117139634D01*
X147714318Y-117447348D01*
X147547745Y-117774264D01*
X147416258Y-118116801D01*
X147321295Y-118471206D01*
X147320779Y-118474467D01*
X147303599Y-118582935D01*
X147273187Y-118647088D01*
X147212918Y-118684615D01*
X147141929Y-118683601D01*
X147082757Y-118644368D01*
X147058949Y-118601011D01*
X146126683Y-115635442D01*
X144816623Y-111468098D01*
X144815276Y-111397115D01*
X144845673Y-111347781D01*
X144801904Y-111333213D01*
X144757355Y-111277932D01*
X144753563Y-111267501D01*
X144294761Y-109808037D01*
X143902209Y-108559317D01*
X143902116Y-108558903D01*
X143902164Y-108557513D01*
X143898342Y-108545753D01*
X143893128Y-108522307D01*
X143853720Y-108204442D01*
X143853280Y-108200348D01*
X143837510Y-108026877D01*
X143821193Y-107847395D01*
X143820889Y-107843298D01*
X143820164Y-107830797D01*
X143802333Y-107523564D01*
X143803233Y-107499567D01*
X143803411Y-107498233D01*
X143803411Y-107498230D01*
X143804872Y-107487302D01*
X143802507Y-107476533D01*
X143802216Y-107469539D01*
X143800500Y-107453720D01*
X143800500Y-104930421D01*
X149758567Y-104930421D01*
X149765354Y-104940122D01*
X149782351Y-104954638D01*
X149790333Y-104960438D01*
X149989919Y-105082745D01*
X149998713Y-105087226D01*
X150214970Y-105176802D01*
X150224355Y-105179851D01*
X150451964Y-105234496D01*
X150461711Y-105236039D01*
X150695070Y-105254405D01*
X150704930Y-105254405D01*
X150938289Y-105236039D01*
X150948036Y-105234496D01*
X151175645Y-105179851D01*
X151185030Y-105176802D01*
X151401287Y-105087226D01*
X151410081Y-105082745D01*
X151609667Y-104960438D01*
X151617649Y-104954638D01*
X151633076Y-104941463D01*
X151641506Y-104928549D01*
X151635499Y-104918342D01*
X150712812Y-103995655D01*
X150698868Y-103988041D01*
X150697035Y-103988172D01*
X150690420Y-103992423D01*
X149765959Y-104916884D01*
X149758567Y-104930421D01*
X143800500Y-104930421D01*
X143800500Y-103704930D01*
X149145595Y-103704930D01*
X149163961Y-103938289D01*
X149165504Y-103948036D01*
X149220149Y-104175645D01*
X149223198Y-104185030D01*
X149312774Y-104401287D01*
X149317255Y-104410081D01*
X149439562Y-104609667D01*
X149445362Y-104617649D01*
X149458537Y-104633076D01*
X149471451Y-104641506D01*
X149481658Y-104635499D01*
X150404345Y-103712812D01*
X150410723Y-103701132D01*
X150988041Y-103701132D01*
X150988172Y-103702965D01*
X150992423Y-103709580D01*
X151916884Y-104634041D01*
X151930421Y-104641433D01*
X151940122Y-104634646D01*
X151954638Y-104617649D01*
X151960438Y-104609667D01*
X152082745Y-104410081D01*
X152087226Y-104401287D01*
X152176802Y-104185030D01*
X152179851Y-104175645D01*
X152234496Y-103948036D01*
X152236039Y-103938289D01*
X152254405Y-103704930D01*
X152254405Y-103695070D01*
X152236039Y-103461711D01*
X152234496Y-103451964D01*
X152179851Y-103224355D01*
X152176802Y-103214970D01*
X152087226Y-102998713D01*
X152082745Y-102989919D01*
X151960438Y-102790333D01*
X151954638Y-102782351D01*
X151941463Y-102766924D01*
X151928549Y-102758494D01*
X151918342Y-102764501D01*
X150995655Y-103687188D01*
X150988041Y-103701132D01*
X150410723Y-103701132D01*
X150411959Y-103698868D01*
X150411828Y-103697035D01*
X150407577Y-103690420D01*
X149483116Y-102765959D01*
X149469579Y-102758567D01*
X149459878Y-102765354D01*
X149445362Y-102782351D01*
X149439562Y-102790333D01*
X149317255Y-102989919D01*
X149312774Y-102998713D01*
X149223198Y-103214970D01*
X149220149Y-103224355D01*
X149165504Y-103451964D01*
X149163961Y-103461711D01*
X149145595Y-103695070D01*
X149145595Y-103704930D01*
X143800500Y-103704930D01*
X143800500Y-102471451D01*
X149758494Y-102471451D01*
X149764501Y-102481658D01*
X150687188Y-103404345D01*
X150701132Y-103411959D01*
X150702965Y-103411828D01*
X150709580Y-103407577D01*
X151634041Y-102483116D01*
X151641433Y-102469579D01*
X151634646Y-102459878D01*
X151617649Y-102445362D01*
X151609667Y-102439562D01*
X151410081Y-102317255D01*
X151401287Y-102312774D01*
X151185030Y-102223198D01*
X151175645Y-102220149D01*
X150948036Y-102165504D01*
X150938289Y-102163961D01*
X150704930Y-102145595D01*
X150695070Y-102145595D01*
X150461711Y-102163961D01*
X150451964Y-102165504D01*
X150224355Y-102220149D01*
X150214970Y-102223198D01*
X149998713Y-102312774D01*
X149989919Y-102317255D01*
X149790333Y-102439562D01*
X149782351Y-102445362D01*
X149766924Y-102458537D01*
X149758494Y-102471451D01*
X143800500Y-102471451D01*
X143800500Y-100886428D01*
X148352351Y-100886428D01*
X148359809Y-100896797D01*
X148628493Y-101114372D01*
X148633844Y-101118260D01*
X148944761Y-101320172D01*
X148950471Y-101323469D01*
X149280799Y-101491779D01*
X149286824Y-101494461D01*
X149632922Y-101627316D01*
X149639204Y-101629357D01*
X149997302Y-101725308D01*
X150003752Y-101726679D01*
X150369933Y-101784678D01*
X150376471Y-101785364D01*
X150746699Y-101804767D01*
X150753301Y-101804767D01*
X151123529Y-101785364D01*
X151130067Y-101784678D01*
X151496248Y-101726679D01*
X151502698Y-101725308D01*
X151860796Y-101629357D01*
X151867078Y-101627316D01*
X152213176Y-101494461D01*
X152219201Y-101491779D01*
X152549529Y-101323469D01*
X152555239Y-101320172D01*
X152866156Y-101118260D01*
X152871507Y-101114372D01*
X153139240Y-100897566D01*
X153147708Y-100885308D01*
X153141375Y-100874218D01*
X150762812Y-98495655D01*
X150748868Y-98488041D01*
X150747035Y-98488172D01*
X150740420Y-98492423D01*
X148359491Y-100873352D01*
X148352351Y-100886428D01*
X143800500Y-100886428D01*
X143800500Y-99755452D01*
X143820502Y-99687331D01*
X143874158Y-99640838D01*
X143944432Y-99630734D01*
X144009012Y-99660228D01*
X144029713Y-99683182D01*
X144161505Y-99871401D01*
X144328599Y-100038495D01*
X144522171Y-100174035D01*
X144527149Y-100176356D01*
X144527152Y-100176358D01*
X144731355Y-100271580D01*
X144736337Y-100273903D01*
X144741645Y-100275325D01*
X144741647Y-100275326D01*
X144959277Y-100333639D01*
X144964592Y-100335063D01*
X145067682Y-100344082D01*
X145138310Y-100350262D01*
X145138317Y-100350262D01*
X145141034Y-100350500D01*
X145258966Y-100350500D01*
X145261683Y-100350262D01*
X145261690Y-100350262D01*
X145332318Y-100344082D01*
X145435408Y-100335063D01*
X145440723Y-100333639D01*
X145658353Y-100275326D01*
X145658355Y-100275325D01*
X145663663Y-100273903D01*
X145668645Y-100271580D01*
X145872848Y-100176358D01*
X145872851Y-100176356D01*
X145877829Y-100174035D01*
X146071401Y-100038495D01*
X146238495Y-99871401D01*
X146241655Y-99866889D01*
X146370878Y-99682339D01*
X146370881Y-99682334D01*
X146374035Y-99677830D01*
X146376358Y-99672848D01*
X146376361Y-99672843D01*
X146471580Y-99468645D01*
X146471581Y-99468644D01*
X146473903Y-99463663D01*
X146479793Y-99441683D01*
X146533639Y-99240723D01*
X146533639Y-99240722D01*
X146535063Y-99235408D01*
X146555659Y-99000000D01*
X146535063Y-98764592D01*
X146484665Y-98576500D01*
X146475326Y-98541647D01*
X146475325Y-98541645D01*
X146473903Y-98536337D01*
X146454933Y-98495655D01*
X146376358Y-98327152D01*
X146376356Y-98327149D01*
X146374035Y-98322171D01*
X146290802Y-98203301D01*
X147145233Y-98203301D01*
X147164636Y-98573529D01*
X147165322Y-98580067D01*
X147223321Y-98946248D01*
X147224692Y-98952698D01*
X147320643Y-99310796D01*
X147322684Y-99317078D01*
X147455539Y-99663176D01*
X147458221Y-99669201D01*
X147626531Y-99999529D01*
X147629828Y-100005239D01*
X147831740Y-100316156D01*
X147835628Y-100321507D01*
X148052434Y-100589240D01*
X148064692Y-100597708D01*
X148075782Y-100591375D01*
X150454345Y-98212812D01*
X150460723Y-98201132D01*
X151038041Y-98201132D01*
X151038172Y-98202965D01*
X151042423Y-98209580D01*
X153423352Y-100590509D01*
X153436428Y-100597649D01*
X153446797Y-100590191D01*
X153664372Y-100321507D01*
X153668260Y-100316156D01*
X153870172Y-100005239D01*
X153873469Y-99999529D01*
X154041779Y-99669201D01*
X154044461Y-99663176D01*
X154177316Y-99317078D01*
X154179357Y-99310796D01*
X154275308Y-98952698D01*
X154276679Y-98946248D01*
X154334678Y-98580067D01*
X154335364Y-98573529D01*
X154354767Y-98203301D01*
X154354767Y-98196699D01*
X154335364Y-97826471D01*
X154334678Y-97819933D01*
X154276679Y-97453752D01*
X154275308Y-97447302D01*
X154179357Y-97089204D01*
X154177316Y-97082922D01*
X154044461Y-96736824D01*
X154041779Y-96730799D01*
X153873469Y-96400471D01*
X153870172Y-96394761D01*
X153668260Y-96083844D01*
X153664372Y-96078493D01*
X153447566Y-95810760D01*
X153435308Y-95802292D01*
X153424218Y-95808625D01*
X151045655Y-98187188D01*
X151038041Y-98201132D01*
X150460723Y-98201132D01*
X150461959Y-98198868D01*
X150461828Y-98197035D01*
X150457577Y-98190420D01*
X148076648Y-95809491D01*
X148063572Y-95802351D01*
X148053203Y-95809809D01*
X147835628Y-96078493D01*
X147831740Y-96083844D01*
X147629828Y-96394761D01*
X147626531Y-96400471D01*
X147458221Y-96730799D01*
X147455539Y-96736824D01*
X147322684Y-97082922D01*
X147320643Y-97089204D01*
X147224692Y-97447302D01*
X147223321Y-97453752D01*
X147165322Y-97819933D01*
X147164636Y-97826471D01*
X147145233Y-98196699D01*
X147145233Y-98203301D01*
X146290802Y-98203301D01*
X146238495Y-98128599D01*
X146071401Y-97961505D01*
X145877829Y-97825965D01*
X145872851Y-97823644D01*
X145872848Y-97823642D01*
X145668645Y-97728420D01*
X145668643Y-97728419D01*
X145663663Y-97726097D01*
X145658355Y-97724675D01*
X145658353Y-97724674D01*
X145440723Y-97666361D01*
X145440722Y-97666361D01*
X145435408Y-97664937D01*
X145332318Y-97655918D01*
X145261690Y-97649738D01*
X145261683Y-97649738D01*
X145258966Y-97649500D01*
X145141034Y-97649500D01*
X145138317Y-97649738D01*
X145138310Y-97649738D01*
X145067682Y-97655918D01*
X144964592Y-97664937D01*
X144959278Y-97666361D01*
X144959277Y-97666361D01*
X144741647Y-97724674D01*
X144741645Y-97724675D01*
X144736337Y-97726097D01*
X144731357Y-97728419D01*
X144731355Y-97728420D01*
X144527152Y-97823642D01*
X144527149Y-97823644D01*
X144522171Y-97825965D01*
X144328599Y-97961505D01*
X144161505Y-98128599D01*
X144158348Y-98133107D01*
X144158346Y-98133110D01*
X144029713Y-98316817D01*
X143974256Y-98361145D01*
X143903636Y-98368454D01*
X143840276Y-98336423D01*
X143804291Y-98275222D01*
X143800500Y-98244546D01*
X143800500Y-96097980D01*
X143802415Y-96076097D01*
X143803221Y-96071525D01*
X143803221Y-96071524D01*
X143805136Y-96060668D01*
X143803222Y-96049810D01*
X143803222Y-96038788D01*
X143803779Y-96038788D01*
X143803189Y-96026509D01*
X143814494Y-95882916D01*
X143817587Y-95863388D01*
X143856901Y-95699652D01*
X143863011Y-95680849D01*
X143926886Y-95526648D01*
X143927454Y-95525277D01*
X143936428Y-95507666D01*
X144024416Y-95364089D01*
X144036037Y-95348094D01*
X144068260Y-95310367D01*
X144145403Y-95220047D01*
X144159374Y-95206077D01*
X144287425Y-95096714D01*
X144303412Y-95085099D01*
X144446994Y-94997113D01*
X144464609Y-94988138D01*
X144511695Y-94968635D01*
X144620177Y-94923701D01*
X144638976Y-94917593D01*
X144802718Y-94878282D01*
X144822244Y-94875189D01*
X144966004Y-94863875D01*
X144978122Y-94864458D01*
X144978122Y-94863881D01*
X144989142Y-94863881D01*
X145000000Y-94865796D01*
X145010855Y-94863882D01*
X145010856Y-94863882D01*
X145015437Y-94863074D01*
X145037317Y-94861160D01*
X148856111Y-94861160D01*
X148924232Y-94881162D01*
G37*
%TD.AperFunction*%
%TA.AperFunction,Conductor*%
G36*
X153448826Y-107570502D02*
G01*
X153495319Y-107624158D01*
X153503826Y-107649718D01*
X153512867Y-107691279D01*
X153523825Y-107729488D01*
X153527802Y-107736288D01*
X153570924Y-107810020D01*
X153580504Y-107826401D01*
X153626997Y-107880057D01*
X153629311Y-107882239D01*
X153629320Y-107882248D01*
X153658681Y-107909932D01*
X153694523Y-107971217D01*
X153691542Y-108042151D01*
X153654756Y-108096831D01*
X153622348Y-108124913D01*
X153619943Y-108126997D01*
X153577762Y-108171733D01*
X153573680Y-108179761D01*
X153573678Y-108179764D01*
X153533244Y-108259287D01*
X153526877Y-108271810D01*
X153506875Y-108339931D01*
X153506234Y-108344387D01*
X153506233Y-108344393D01*
X153503353Y-108364427D01*
X153494500Y-108426000D01*
X153494500Y-109329065D01*
X153485893Y-109374834D01*
X153466524Y-109424513D01*
X153465532Y-109432046D01*
X153465532Y-109432047D01*
X153448225Y-109563514D01*
X153444394Y-109592611D01*
X153462999Y-109761135D01*
X153465609Y-109768267D01*
X153486826Y-109826245D01*
X153494500Y-109869546D01*
X153494500Y-111174000D01*
X153494860Y-111177346D01*
X153494860Y-111177351D01*
X153499042Y-111216245D01*
X153501481Y-111238937D01*
X153502199Y-111242237D01*
X153502199Y-111242238D01*
X153512431Y-111289277D01*
X153512435Y-111289292D01*
X153512867Y-111291279D01*
X153513430Y-111293242D01*
X153513432Y-111293250D01*
X153518722Y-111311694D01*
X153523825Y-111329488D01*
X153527802Y-111336288D01*
X153572321Y-111412409D01*
X153580504Y-111426401D01*
X153626997Y-111480057D01*
X153629309Y-111482237D01*
X153629311Y-111482239D01*
X153640002Y-111492320D01*
X153671733Y-111522238D01*
X153679761Y-111526320D01*
X153679764Y-111526322D01*
X153766619Y-111570484D01*
X153766623Y-111570485D01*
X153771810Y-111573123D01*
X153777396Y-111574763D01*
X153777398Y-111574764D01*
X153782204Y-111576175D01*
X153839931Y-111593125D01*
X153844387Y-111593766D01*
X153844393Y-111593767D01*
X153879964Y-111598881D01*
X153926000Y-111605500D01*
X153939619Y-111605500D01*
X154007740Y-111625502D01*
X154054233Y-111679158D01*
X154064337Y-111749432D01*
X154044802Y-111796152D01*
X154046529Y-111797125D01*
X154042309Y-111804614D01*
X154037119Y-111811452D01*
X153984747Y-111943727D01*
X153974500Y-112028406D01*
X153974500Y-112194784D01*
X153954498Y-112262905D01*
X153937596Y-112283879D01*
X153433881Y-112787595D01*
X153371568Y-112821620D01*
X153344785Y-112824500D01*
X151920277Y-112824500D01*
X151852156Y-112804498D01*
X151827084Y-112783300D01*
X151826505Y-112782663D01*
X151692629Y-112635536D01*
X151688578Y-112632337D01*
X151688574Y-112632333D01*
X151509500Y-112490909D01*
X151509496Y-112490907D01*
X151505445Y-112487707D01*
X151422210Y-112441759D01*
X151372240Y-112391328D01*
X151357468Y-112321885D01*
X151382584Y-112255479D01*
X151410833Y-112228238D01*
X151416321Y-112224395D01*
X151424696Y-112213918D01*
X151417628Y-112200471D01*
X150712812Y-111495655D01*
X150698868Y-111488041D01*
X150697035Y-111488172D01*
X150690420Y-111492423D01*
X149981651Y-112201192D01*
X149975221Y-112212967D01*
X149984516Y-112224981D01*
X149988184Y-112227549D01*
X150032514Y-112283006D01*
X150039825Y-112353625D01*
X150007795Y-112416986D01*
X149974098Y-112442526D01*
X149924414Y-112468390D01*
X149920281Y-112471493D01*
X149920278Y-112471495D01*
X149815241Y-112550360D01*
X149733675Y-112611602D01*
X149568887Y-112784042D01*
X149567444Y-112782663D01*
X149516075Y-112818147D01*
X149476571Y-112824500D01*
X147617716Y-112824500D01*
X147549595Y-112804498D01*
X147528621Y-112787596D01*
X147062405Y-112321381D01*
X147028380Y-112259068D01*
X147025500Y-112232285D01*
X147025500Y-112028406D01*
X147015253Y-111943727D01*
X146962881Y-111811452D01*
X146957691Y-111804614D01*
X146953471Y-111797125D01*
X146955554Y-111795951D01*
X146934765Y-111741324D01*
X146949395Y-111671851D01*
X146999262Y-111621316D01*
X147060381Y-111605500D01*
X147174000Y-111605500D01*
X147177346Y-111605140D01*
X147177351Y-111605140D01*
X147235573Y-111598881D01*
X147235580Y-111598880D01*
X147238937Y-111598519D01*
X147242238Y-111597801D01*
X147289277Y-111587569D01*
X147289292Y-111587565D01*
X147291279Y-111587133D01*
X147293242Y-111586570D01*
X147293250Y-111586568D01*
X147321916Y-111578347D01*
X147321919Y-111578346D01*
X147329488Y-111576175D01*
X147414730Y-111526322D01*
X147421380Y-111522433D01*
X147421384Y-111522430D01*
X147426401Y-111519496D01*
X147480057Y-111473003D01*
X147522238Y-111428267D01*
X147526320Y-111420239D01*
X147526322Y-111420236D01*
X147570484Y-111333381D01*
X147570485Y-111333377D01*
X147573123Y-111328190D01*
X147577077Y-111314726D01*
X147584549Y-111289277D01*
X147593125Y-111260069D01*
X147596164Y-111238937D01*
X147600384Y-111209580D01*
X147600974Y-111205475D01*
X149445704Y-111205475D01*
X149463809Y-111412409D01*
X149465712Y-111423204D01*
X149519474Y-111623848D01*
X149523220Y-111634140D01*
X149611010Y-111822406D01*
X149616488Y-111831892D01*
X149675604Y-111916320D01*
X149686082Y-111924695D01*
X149699530Y-111917627D01*
X150404345Y-111212812D01*
X150410723Y-111201132D01*
X150988041Y-111201132D01*
X150988172Y-111202965D01*
X150992423Y-111209580D01*
X151701192Y-111918349D01*
X151712966Y-111924779D01*
X151724982Y-111915482D01*
X151783512Y-111831892D01*
X151788990Y-111822406D01*
X151876780Y-111634140D01*
X151880526Y-111623848D01*
X151934288Y-111423204D01*
X151936191Y-111412409D01*
X151954296Y-111205475D01*
X151954296Y-111194525D01*
X151936191Y-110987591D01*
X151934288Y-110976796D01*
X151880526Y-110776152D01*
X151876780Y-110765860D01*
X151788990Y-110577594D01*
X151783512Y-110568108D01*
X151724396Y-110483680D01*
X151713918Y-110475305D01*
X151700470Y-110482373D01*
X150995655Y-111187188D01*
X150988041Y-111201132D01*
X150410723Y-111201132D01*
X150411959Y-111198868D01*
X150411828Y-111197035D01*
X150407577Y-111190420D01*
X149698808Y-110481651D01*
X149687034Y-110475221D01*
X149675018Y-110484518D01*
X149616488Y-110568108D01*
X149611010Y-110577594D01*
X149523220Y-110765860D01*
X149519474Y-110776152D01*
X149465712Y-110976796D01*
X149463809Y-110987591D01*
X149445704Y-111194525D01*
X149445704Y-111205475D01*
X147600974Y-111205475D01*
X147605500Y-111174000D01*
X147605500Y-109871940D01*
X147614593Y-109824944D01*
X147628765Y-109789691D01*
X147628767Y-109789684D01*
X147631601Y-109782634D01*
X147655490Y-109614778D01*
X147655645Y-109600000D01*
X147653840Y-109585080D01*
X147650224Y-109555201D01*
X147635276Y-109431680D01*
X147613634Y-109374406D01*
X147605500Y-109329868D01*
X147605500Y-108426000D01*
X147598519Y-108361063D01*
X147592982Y-108335607D01*
X147587569Y-108310723D01*
X147587565Y-108310708D01*
X147587133Y-108308721D01*
X147576175Y-108270512D01*
X147563809Y-108249368D01*
X147522433Y-108178620D01*
X147522430Y-108178616D01*
X147519496Y-108173599D01*
X147473003Y-108119943D01*
X147448491Y-108096831D01*
X147434826Y-108083946D01*
X147434824Y-108083945D01*
X147428267Y-108077762D01*
X147427189Y-108077214D01*
X147385444Y-108024740D01*
X147378298Y-107954104D01*
X147410475Y-107890818D01*
X147419638Y-107882032D01*
X147427649Y-107875090D01*
X147427654Y-107875085D01*
X147430057Y-107873003D01*
X147472238Y-107828267D01*
X147476320Y-107820239D01*
X147476322Y-107820236D01*
X147489462Y-107794392D01*
X147538166Y-107742736D01*
X147601777Y-107725500D01*
X149370346Y-107725500D01*
X149438467Y-107745502D01*
X149484960Y-107799158D01*
X149495064Y-107869432D01*
X149474434Y-107922505D01*
X149438447Y-107975260D01*
X149434475Y-107981082D01*
X149432301Y-107985765D01*
X149432299Y-107985769D01*
X149345978Y-108171733D01*
X149334051Y-108197428D01*
X149270309Y-108427272D01*
X149269760Y-108432409D01*
X149247469Y-108640994D01*
X149244963Y-108664440D01*
X149245260Y-108669592D01*
X149245260Y-108669596D01*
X149258396Y-108897403D01*
X149258397Y-108897409D01*
X149258694Y-108902562D01*
X149311131Y-109135245D01*
X149313075Y-109140032D01*
X149313076Y-109140036D01*
X149351960Y-109235795D01*
X149400867Y-109356239D01*
X149525493Y-109559609D01*
X149681660Y-109739894D01*
X149865176Y-109892252D01*
X149976671Y-109957404D01*
X149980576Y-109959686D01*
X150029299Y-110011325D01*
X150042370Y-110081108D01*
X150015638Y-110146880D01*
X149989274Y-110171688D01*
X149983679Y-110175606D01*
X149975305Y-110186082D01*
X149982373Y-110199530D01*
X150687188Y-110904345D01*
X150701132Y-110911959D01*
X150702965Y-110911828D01*
X150709580Y-110907577D01*
X151418349Y-110198808D01*
X151424779Y-110187033D01*
X151415481Y-110175016D01*
X151413698Y-110173767D01*
X151369371Y-110118309D01*
X151362063Y-110047689D01*
X151394096Y-109984330D01*
X151430539Y-109957405D01*
X151445264Y-109950191D01*
X151526492Y-109892252D01*
X151635242Y-109814681D01*
X151639445Y-109811683D01*
X151808397Y-109643320D01*
X151828907Y-109614778D01*
X151944564Y-109453823D01*
X151947582Y-109449623D01*
X151995456Y-109352759D01*
X152050969Y-109240437D01*
X152050970Y-109240435D01*
X152053263Y-109235795D01*
X152122600Y-109007577D01*
X152123275Y-109002451D01*
X152153296Y-108774421D01*
X152153297Y-108774414D01*
X152153733Y-108771099D01*
X152155471Y-108700000D01*
X152143879Y-108559008D01*
X152136351Y-108467435D01*
X152136350Y-108467429D01*
X152135927Y-108462284D01*
X152077821Y-108230952D01*
X152027102Y-108114307D01*
X152018281Y-108043860D01*
X152053556Y-107974969D01*
X152441120Y-107587405D01*
X152503432Y-107553379D01*
X152530215Y-107550500D01*
X153380705Y-107550500D01*
X153448826Y-107570502D01*
G37*
%TD.AperFunction*%
%TD*%
%TA.AperFunction,Conductor*%
%TO.N,/vcc*%
G36*
X147192121Y-106020002D02*
G01*
X147238614Y-106073658D01*
X147250000Y-106126000D01*
X147250000Y-107574000D01*
X147229998Y-107642121D01*
X147176342Y-107688614D01*
X147124000Y-107700000D01*
X145376000Y-107700000D01*
X145307879Y-107679998D01*
X145261386Y-107626342D01*
X145250000Y-107574000D01*
X145250000Y-106126000D01*
X145270002Y-106057879D01*
X145323658Y-106011386D01*
X145376000Y-106000000D01*
X147124000Y-106000000D01*
X147192121Y-106020002D01*
G37*
%TD.AperFunction*%
%TD*%
%TA.AperFunction,Conductor*%
%TO.N,/vcc*%
G36*
X155742121Y-106020002D02*
G01*
X155788614Y-106073658D01*
X155800000Y-106126000D01*
X155800000Y-107574000D01*
X155779998Y-107642121D01*
X155726342Y-107688614D01*
X155674000Y-107700000D01*
X153926000Y-107700000D01*
X153857879Y-107679998D01*
X153811386Y-107626342D01*
X153800000Y-107574000D01*
X153800000Y-106126000D01*
X153820002Y-106057879D01*
X153873658Y-106011386D01*
X153926000Y-106000000D01*
X155674000Y-106000000D01*
X155742121Y-106020002D01*
G37*
%TD.AperFunction*%
%TD*%
%TA.AperFunction,Conductor*%
%TO.N,/r to d 1*%
G36*
X147242121Y-108320002D02*
G01*
X147288614Y-108373658D01*
X147300000Y-108426000D01*
X147300000Y-111174000D01*
X147279998Y-111242121D01*
X147226342Y-111288614D01*
X147174000Y-111300000D01*
X145426000Y-111300000D01*
X145357879Y-111279998D01*
X145311386Y-111226342D01*
X145300000Y-111174000D01*
X145300000Y-108426000D01*
X145320002Y-108357879D01*
X145373658Y-108311386D01*
X145426000Y-108300000D01*
X147174000Y-108300000D01*
X147242121Y-108320002D01*
G37*
%TD.AperFunction*%
%TD*%
%TA.AperFunction,Conductor*%
%TO.N,/r to d 2*%
G36*
X155742121Y-108320002D02*
G01*
X155788614Y-108373658D01*
X155800000Y-108426000D01*
X155800000Y-111174000D01*
X155779998Y-111242121D01*
X155726342Y-111288614D01*
X155674000Y-111300000D01*
X153926000Y-111300000D01*
X153857879Y-111279998D01*
X153811386Y-111226342D01*
X153800000Y-111174000D01*
X153800000Y-108426000D01*
X153820002Y-108357879D01*
X153873658Y-108311386D01*
X153926000Y-108300000D01*
X155674000Y-108300000D01*
X155742121Y-108320002D01*
G37*
%TD.AperFunction*%
%TD*%
M02*
