%TF.GenerationSoftware,KiCad,Pcbnew,(6.0.11)*%
%TF.CreationDate,2023-02-04T21:30:25-06:00*%
%TF.ProjectId,Euclid Reverse Engineer,4575636c-6964-4205-9265-766572736520,rev?*%
%TF.SameCoordinates,Original*%
%TF.FileFunction,Copper,L1,Top*%
%TF.FilePolarity,Positive*%
%FSLAX46Y46*%
G04 Gerber Fmt 4.6, Leading zero omitted, Abs format (unit mm)*
G04 Created by KiCad (PCBNEW (6.0.11)) date 2023-02-04 21:30:25*
%MOMM*%
%LPD*%
G01*
G04 APERTURE LIST*
%TA.AperFunction,ComponentPad*%
%ADD10C,2.300000*%
%TD*%
%TA.AperFunction,ComponentPad*%
%ADD11C,1.700000*%
%TD*%
%TA.AperFunction,ComponentPad*%
%ADD12C,0.800000*%
%TD*%
%TA.AperFunction,ComponentPad*%
%ADD13C,6.400000*%
%TD*%
%TA.AperFunction,ViaPad*%
%ADD14C,0.800000*%
%TD*%
%TA.AperFunction,Conductor*%
%ADD15C,0.500000*%
%TD*%
G04 APERTURE END LIST*
D10*
%TO.P,J1,1,Pin_1*%
%TO.N,/sig*%
X150750000Y-113500000D03*
D11*
%TO.P,J1,2,Pin_2*%
%TO.N,/gnd*%
X150750000Y-111250000D03*
D10*
%TO.P,J1,3,Pin_3*%
%TO.N,/vcc*%
X150750000Y-108500000D03*
%TO.P,J1,4,Pin_4*%
%TO.N,/gnd*%
X150750000Y-103750000D03*
%TD*%
D12*
%TO.P,H2,1,1*%
%TO.N,/gnd*%
X148350000Y-98200000D03*
X149052944Y-99897056D03*
X152447056Y-96502944D03*
X149052944Y-96502944D03*
X150750000Y-100600000D03*
D13*
X150750000Y-98200000D03*
D12*
X150750000Y-95800000D03*
X152447056Y-99897056D03*
X153150000Y-98200000D03*
%TD*%
D13*
%TO.P,H1,1,1*%
%TO.N,/sig*%
X150750000Y-119200000D03*
D12*
X149052944Y-120897056D03*
X153150000Y-119200000D03*
X149052944Y-117502944D03*
X152447056Y-117502944D03*
X150750000Y-121600000D03*
X152447056Y-120897056D03*
X150750000Y-116800000D03*
X148350000Y-119200000D03*
%TD*%
D14*
%TO.N,/gnd*%
X147250000Y-115250000D03*
X146250000Y-103250000D03*
X156200000Y-95800000D03*
X154750000Y-114250000D03*
X155500000Y-103500000D03*
X146200000Y-114000000D03*
X145200000Y-95800000D03*
%TO.N,/vcc*%
X146900000Y-106400000D03*
X145600000Y-106400000D03*
X155450000Y-106400000D03*
X154150000Y-106400000D03*
%TO.N,/r to d 2*%
X154150000Y-109600000D03*
X155450000Y-109600000D03*
%TO.N,/r to d 1*%
X146950000Y-109600000D03*
X145650000Y-109600000D03*
%TD*%
D15*
%TO.N,/sig*%
X150750000Y-113500000D02*
X150750000Y-116800000D01*
%TO.N,/gnd*%
X150875000Y-101125000D02*
X150750000Y-101000000D01*
X150875000Y-103625000D02*
X150875000Y-101125000D01*
%TD*%
%TA.AperFunction,Conductor*%
%TO.N,/gnd*%
G36*
X148924232Y-94881162D02*
G01*
X148970725Y-94934818D01*
X148980829Y-95005092D01*
X148951335Y-95069672D01*
X148924736Y-95092832D01*
X148633848Y-95281737D01*
X148628493Y-95285628D01*
X148360760Y-95502434D01*
X148352292Y-95514692D01*
X148358625Y-95525782D01*
X150737188Y-97904345D01*
X150751132Y-97911959D01*
X150752965Y-97911828D01*
X150759580Y-97907577D01*
X153140509Y-95526648D01*
X153147649Y-95513572D01*
X153140191Y-95503203D01*
X152871507Y-95285628D01*
X152866152Y-95281737D01*
X152575264Y-95092832D01*
X152529028Y-95038956D01*
X152519258Y-94968635D01*
X152549058Y-94904195D01*
X152608967Y-94866096D01*
X152643889Y-94861160D01*
X156462683Y-94861160D01*
X156484563Y-94863074D01*
X156489145Y-94863882D01*
X156500000Y-94865796D01*
X156510856Y-94863882D01*
X156521878Y-94863882D01*
X156521878Y-94864439D01*
X156534152Y-94863848D01*
X156677762Y-94875150D01*
X156697288Y-94878243D01*
X156861036Y-94917555D01*
X156879835Y-94923663D01*
X157035409Y-94988103D01*
X157053021Y-94997076D01*
X157121365Y-95038956D01*
X157196609Y-95085064D01*
X157212598Y-95096680D01*
X157340655Y-95206049D01*
X157354630Y-95220025D01*
X157463998Y-95348076D01*
X157475619Y-95364069D01*
X157563612Y-95507655D01*
X157572580Y-95525254D01*
X157637027Y-95680835D01*
X157643137Y-95699638D01*
X157682452Y-95863382D01*
X157685545Y-95882910D01*
X157696838Y-96026353D01*
X157696241Y-96038789D01*
X157696777Y-96038789D01*
X157696777Y-96049814D01*
X157694864Y-96060668D01*
X157696778Y-96071521D01*
X157696778Y-96071524D01*
X157697585Y-96076097D01*
X157699500Y-96097980D01*
X157699500Y-98451782D01*
X157679498Y-98519903D01*
X157625842Y-98566396D01*
X157555568Y-98576500D01*
X157490988Y-98547006D01*
X157459305Y-98505032D01*
X157454933Y-98495655D01*
X157374035Y-98322171D01*
X157238495Y-98128599D01*
X157071401Y-97961505D01*
X156877829Y-97825965D01*
X156872851Y-97823644D01*
X156872848Y-97823642D01*
X156668645Y-97728420D01*
X156668643Y-97728419D01*
X156663663Y-97726097D01*
X156658355Y-97724675D01*
X156658353Y-97724674D01*
X156440723Y-97666361D01*
X156440722Y-97666361D01*
X156435408Y-97664937D01*
X156332318Y-97655918D01*
X156261690Y-97649738D01*
X156261683Y-97649738D01*
X156258966Y-97649500D01*
X156141034Y-97649500D01*
X156138317Y-97649738D01*
X156138310Y-97649738D01*
X156067682Y-97655918D01*
X155964592Y-97664937D01*
X155959278Y-97666361D01*
X155959277Y-97666361D01*
X155741647Y-97724674D01*
X155741645Y-97724675D01*
X155736337Y-97726097D01*
X155731357Y-97728419D01*
X155731355Y-97728420D01*
X155527152Y-97823642D01*
X155527149Y-97823644D01*
X155522171Y-97825965D01*
X155328599Y-97961505D01*
X155161505Y-98128599D01*
X155158348Y-98133107D01*
X155158346Y-98133110D01*
X155109433Y-98202965D01*
X155025965Y-98322170D01*
X155023642Y-98327152D01*
X155023639Y-98327157D01*
X154948618Y-98488041D01*
X154926097Y-98536337D01*
X154924675Y-98541645D01*
X154924674Y-98541647D01*
X154915335Y-98576500D01*
X154864937Y-98764592D01*
X154844341Y-99000000D01*
X154864937Y-99235408D01*
X154866361Y-99240722D01*
X154866361Y-99240723D01*
X154920208Y-99441683D01*
X154926097Y-99463663D01*
X154928419Y-99468643D01*
X154928420Y-99468645D01*
X155021942Y-99669201D01*
X155025965Y-99677829D01*
X155161505Y-99871401D01*
X155328599Y-100038495D01*
X155522171Y-100174035D01*
X155527149Y-100176356D01*
X155527152Y-100176358D01*
X155731355Y-100271580D01*
X155736337Y-100273903D01*
X155741645Y-100275325D01*
X155741647Y-100275326D01*
X155959277Y-100333639D01*
X155964592Y-100335063D01*
X156067682Y-100344082D01*
X156138310Y-100350262D01*
X156138317Y-100350262D01*
X156141034Y-100350500D01*
X156258966Y-100350500D01*
X156261683Y-100350262D01*
X156261690Y-100350262D01*
X156332318Y-100344082D01*
X156435408Y-100335063D01*
X156440723Y-100333639D01*
X156658353Y-100275326D01*
X156658355Y-100275325D01*
X156663663Y-100273903D01*
X156668645Y-100271580D01*
X156872848Y-100176358D01*
X156872851Y-100176356D01*
X156877829Y-100174035D01*
X157071401Y-100038495D01*
X157238495Y-99871401D01*
X157241655Y-99866889D01*
X157370878Y-99682339D01*
X157370881Y-99682334D01*
X157374035Y-99677830D01*
X157376358Y-99672848D01*
X157376361Y-99672843D01*
X157459305Y-99494968D01*
X157506222Y-99441683D01*
X157574500Y-99422222D01*
X157642460Y-99442764D01*
X157688525Y-99496787D01*
X157699500Y-99548218D01*
X157699500Y-107459055D01*
X157697200Y-107483020D01*
X157694906Y-107494862D01*
X157696637Y-107505748D01*
X157696557Y-107510504D01*
X157697527Y-107529866D01*
X157685090Y-107745568D01*
X157684082Y-107755784D01*
X157676489Y-107810020D01*
X157649984Y-107999323D01*
X157648147Y-108009425D01*
X157594335Y-108249368D01*
X157591682Y-108259287D01*
X157576889Y-108306750D01*
X157538318Y-108430506D01*
X157532205Y-108450118D01*
X157530024Y-108456142D01*
X157530093Y-108456167D01*
X157529049Y-108459084D01*
X157527878Y-108461914D01*
X157526989Y-108464843D01*
X157526986Y-108464851D01*
X157526313Y-108467070D01*
X157521466Y-108478344D01*
X157518079Y-108487831D01*
X157512627Y-108497411D01*
X157510780Y-108508278D01*
X157510779Y-108508281D01*
X157508268Y-108523051D01*
X157504617Y-108538537D01*
X154444462Y-118619049D01*
X154405535Y-118678422D01*
X154340687Y-118707324D01*
X154270508Y-118696579D01*
X154217279Y-118649598D01*
X154199446Y-118602159D01*
X154179221Y-118474467D01*
X154178705Y-118471206D01*
X154083742Y-118116801D01*
X153952255Y-117774264D01*
X153785682Y-117447348D01*
X153585851Y-117139634D01*
X153354949Y-116854494D01*
X153095506Y-116595051D01*
X152810366Y-116364149D01*
X152502652Y-116164318D01*
X152499718Y-116162823D01*
X152499711Y-116162819D01*
X152178676Y-115999243D01*
X152175736Y-115997745D01*
X151833199Y-115866258D01*
X151478794Y-115771295D01*
X151475535Y-115770779D01*
X151475531Y-115770778D01*
X151449547Y-115766663D01*
X151406789Y-115759891D01*
X151342637Y-115729479D01*
X151305110Y-115669211D01*
X151300500Y-115635442D01*
X151300500Y-114924185D01*
X151320502Y-114856064D01*
X151371068Y-114811034D01*
X151373211Y-114809984D01*
X151495264Y-114750191D01*
X151572833Y-114694862D01*
X151685242Y-114614681D01*
X151689445Y-114611683D01*
X151858397Y-114443320D01*
X151997582Y-114249623D01*
X152046106Y-114151444D01*
X152100969Y-114040437D01*
X152100970Y-114040435D01*
X152103263Y-114035795D01*
X152172600Y-113807577D01*
X152173275Y-113802451D01*
X152203296Y-113574421D01*
X152203297Y-113574414D01*
X152203733Y-113571099D01*
X152205471Y-113500000D01*
X152197755Y-113406143D01*
X152186351Y-113267435D01*
X152186350Y-113267429D01*
X152185927Y-113262284D01*
X152127821Y-113030952D01*
X152115415Y-113002420D01*
X152034772Y-112816953D01*
X152034770Y-112816950D01*
X152032712Y-112812216D01*
X151903155Y-112611951D01*
X151874360Y-112580305D01*
X151746107Y-112439358D01*
X151746105Y-112439357D01*
X151742629Y-112435536D01*
X151738578Y-112432337D01*
X151738574Y-112432333D01*
X151559500Y-112290909D01*
X151559496Y-112290907D01*
X151555445Y-112287707D01*
X151516136Y-112266007D01*
X151458133Y-112233988D01*
X151429931Y-112212774D01*
X150762812Y-111545655D01*
X150748868Y-111538041D01*
X150747035Y-111538172D01*
X150740420Y-111542423D01*
X150071640Y-112211203D01*
X150040731Y-112233868D01*
X149974414Y-112268390D01*
X149970281Y-112271493D01*
X149970278Y-112271495D01*
X149787810Y-112408497D01*
X149783675Y-112411602D01*
X149618887Y-112584042D01*
X149484475Y-112781082D01*
X149384051Y-112997428D01*
X149320309Y-113227272D01*
X149294963Y-113464440D01*
X149295260Y-113469592D01*
X149295260Y-113469596D01*
X149308396Y-113697403D01*
X149308397Y-113697409D01*
X149308694Y-113702562D01*
X149361131Y-113935245D01*
X149363075Y-113940032D01*
X149363076Y-113940036D01*
X149401960Y-114035795D01*
X149450867Y-114156239D01*
X149575493Y-114359609D01*
X149731660Y-114539894D01*
X149915176Y-114692252D01*
X150006713Y-114745742D01*
X150116650Y-114809984D01*
X150116654Y-114809986D01*
X150121112Y-114812591D01*
X150125938Y-114814434D01*
X150127944Y-114815395D01*
X150180734Y-114862868D01*
X150199500Y-114929025D01*
X150199500Y-115635442D01*
X150179498Y-115703563D01*
X150125842Y-115750056D01*
X150093212Y-115759890D01*
X150050453Y-115766663D01*
X150024469Y-115770778D01*
X150024465Y-115770779D01*
X150021206Y-115771295D01*
X149666801Y-115866258D01*
X149324264Y-115997745D01*
X149321324Y-115999243D01*
X149000289Y-116162819D01*
X149000282Y-116162823D01*
X148997348Y-116164318D01*
X148689634Y-116364149D01*
X148404494Y-116595051D01*
X148145051Y-116854494D01*
X147914149Y-117139634D01*
X147714318Y-117447348D01*
X147547745Y-117774264D01*
X147416258Y-118116801D01*
X147321295Y-118471206D01*
X147320779Y-118474467D01*
X147303599Y-118582935D01*
X147273187Y-118647088D01*
X147212918Y-118684615D01*
X147141929Y-118683601D01*
X147082757Y-118644368D01*
X147058949Y-118601011D01*
X145830999Y-114694862D01*
X144816623Y-111468098D01*
X144815276Y-111397115D01*
X144845673Y-111347781D01*
X144801904Y-111333213D01*
X144757355Y-111277932D01*
X144753563Y-111267501D01*
X144295373Y-109809984D01*
X143902209Y-108559317D01*
X143902116Y-108558903D01*
X143902164Y-108557513D01*
X143898342Y-108545753D01*
X143893128Y-108522307D01*
X143853720Y-108204442D01*
X143853280Y-108200348D01*
X143837450Y-108026216D01*
X143821193Y-107847395D01*
X143820889Y-107843298D01*
X143820164Y-107830797D01*
X143802333Y-107523564D01*
X143803233Y-107499567D01*
X143803411Y-107498233D01*
X143803411Y-107498230D01*
X143804872Y-107487302D01*
X143802507Y-107476533D01*
X143802216Y-107469539D01*
X143800500Y-107453720D01*
X143800500Y-106392611D01*
X144894394Y-106392611D01*
X144912999Y-106561135D01*
X144915609Y-106568267D01*
X144936826Y-106626245D01*
X144944500Y-106669546D01*
X144944500Y-107574000D01*
X144944860Y-107577346D01*
X144944860Y-107577351D01*
X144949047Y-107616294D01*
X144951481Y-107638937D01*
X144952199Y-107642237D01*
X144952199Y-107642238D01*
X144962431Y-107689277D01*
X144962435Y-107689292D01*
X144962867Y-107691279D01*
X144973825Y-107729488D01*
X144977802Y-107736288D01*
X145020924Y-107810020D01*
X145030504Y-107826401D01*
X145076997Y-107880057D01*
X145079309Y-107882237D01*
X145079311Y-107882239D01*
X145108682Y-107909932D01*
X145121733Y-107922238D01*
X145122811Y-107922786D01*
X145164556Y-107975260D01*
X145171702Y-108045896D01*
X145139525Y-108109182D01*
X145130362Y-108117968D01*
X145122351Y-108124910D01*
X145122348Y-108124913D01*
X145119943Y-108126997D01*
X145077762Y-108171733D01*
X145073680Y-108179761D01*
X145073678Y-108179764D01*
X145030994Y-108263712D01*
X145026877Y-108271810D01*
X145006875Y-108339931D01*
X145006234Y-108344387D01*
X145006233Y-108344393D01*
X145003353Y-108364427D01*
X144994500Y-108426000D01*
X144994500Y-109329065D01*
X144985893Y-109374834D01*
X144966524Y-109424513D01*
X144965532Y-109432046D01*
X144965532Y-109432047D01*
X144951849Y-109535987D01*
X144944394Y-109592611D01*
X144962999Y-109761135D01*
X144965609Y-109768267D01*
X144986826Y-109826245D01*
X144994500Y-109869546D01*
X144994500Y-111174000D01*
X144994860Y-111177348D01*
X144999042Y-111216245D01*
X144986436Y-111286114D01*
X144962620Y-111311694D01*
X144986981Y-111314726D01*
X145041510Y-111360192D01*
X145045588Y-111366701D01*
X145063376Y-111397115D01*
X145080504Y-111426401D01*
X145126997Y-111480057D01*
X145171733Y-111522238D01*
X145179761Y-111526320D01*
X145179764Y-111526322D01*
X145266619Y-111570484D01*
X145266623Y-111570485D01*
X145271810Y-111573123D01*
X145277396Y-111574763D01*
X145277398Y-111574764D01*
X145282204Y-111576175D01*
X145339931Y-111593125D01*
X145344387Y-111593766D01*
X145344393Y-111593767D01*
X145379964Y-111598881D01*
X145426000Y-111605500D01*
X147174000Y-111605500D01*
X147177346Y-111605140D01*
X147177351Y-111605140D01*
X147235573Y-111598881D01*
X147235580Y-111598880D01*
X147238937Y-111598519D01*
X147242238Y-111597801D01*
X147289277Y-111587569D01*
X147289292Y-111587565D01*
X147291279Y-111587133D01*
X147293242Y-111586570D01*
X147293250Y-111586568D01*
X147321916Y-111578347D01*
X147321919Y-111578346D01*
X147329488Y-111576175D01*
X147381673Y-111545655D01*
X147421380Y-111522433D01*
X147421384Y-111522430D01*
X147426401Y-111519496D01*
X147480057Y-111473003D01*
X147522238Y-111428267D01*
X147526320Y-111420239D01*
X147526322Y-111420236D01*
X147570484Y-111333381D01*
X147570485Y-111333377D01*
X147573123Y-111328190D01*
X147577077Y-111314726D01*
X147584549Y-111289277D01*
X147593125Y-111260069D01*
X147593786Y-111255475D01*
X149495704Y-111255475D01*
X149513809Y-111462409D01*
X149515712Y-111473204D01*
X149569474Y-111673848D01*
X149573220Y-111684140D01*
X149661010Y-111872406D01*
X149666488Y-111881892D01*
X149725604Y-111966320D01*
X149736082Y-111974695D01*
X149749530Y-111967627D01*
X150454345Y-111262812D01*
X150460723Y-111251132D01*
X151038041Y-111251132D01*
X151038172Y-111252965D01*
X151042423Y-111259580D01*
X151751192Y-111968349D01*
X151762966Y-111974779D01*
X151774982Y-111965482D01*
X151833512Y-111881892D01*
X151838990Y-111872406D01*
X151926780Y-111684140D01*
X151930526Y-111673848D01*
X151984288Y-111473204D01*
X151986191Y-111462409D01*
X152004296Y-111255475D01*
X152004296Y-111244525D01*
X151986191Y-111037591D01*
X151984288Y-111026796D01*
X151930526Y-110826152D01*
X151926780Y-110815860D01*
X151838990Y-110627594D01*
X151833512Y-110618108D01*
X151774396Y-110533680D01*
X151763918Y-110525305D01*
X151750470Y-110532373D01*
X151045655Y-111237188D01*
X151038041Y-111251132D01*
X150460723Y-111251132D01*
X150461959Y-111248868D01*
X150461828Y-111247035D01*
X150457577Y-111240420D01*
X149748808Y-110531651D01*
X149737034Y-110525221D01*
X149725018Y-110534518D01*
X149666488Y-110618108D01*
X149661010Y-110627594D01*
X149573220Y-110815860D01*
X149569474Y-110826152D01*
X149515712Y-111026796D01*
X149513809Y-111037591D01*
X149495704Y-111244525D01*
X149495704Y-111255475D01*
X147593786Y-111255475D01*
X147594147Y-111252965D01*
X147604858Y-111178463D01*
X147605500Y-111174000D01*
X147605500Y-109871940D01*
X147614593Y-109824944D01*
X147628765Y-109789691D01*
X147628767Y-109789684D01*
X147631601Y-109782634D01*
X147655490Y-109614778D01*
X147655645Y-109600000D01*
X147653840Y-109585080D01*
X147648371Y-109539894D01*
X147635276Y-109431680D01*
X147613634Y-109374406D01*
X147605500Y-109329868D01*
X147605500Y-108464440D01*
X149294963Y-108464440D01*
X149295260Y-108469592D01*
X149295260Y-108469596D01*
X149308396Y-108697403D01*
X149308397Y-108697409D01*
X149308694Y-108702562D01*
X149361131Y-108935245D01*
X149363075Y-108940032D01*
X149363076Y-108940036D01*
X149401960Y-109035795D01*
X149450867Y-109156239D01*
X149575493Y-109359609D01*
X149731660Y-109539894D01*
X149915176Y-109692252D01*
X150121112Y-109812591D01*
X150257484Y-109864667D01*
X150313986Y-109907653D01*
X150338279Y-109974365D01*
X150322649Y-110043619D01*
X150265784Y-110096571D01*
X150127594Y-110161010D01*
X150118108Y-110166488D01*
X150033680Y-110225604D01*
X150025305Y-110236082D01*
X150032373Y-110249530D01*
X150737188Y-110954345D01*
X150751132Y-110961959D01*
X150752965Y-110961828D01*
X150759580Y-110957577D01*
X151468349Y-110248808D01*
X151474779Y-110237033D01*
X151465483Y-110225018D01*
X151381896Y-110166490D01*
X151372401Y-110161007D01*
X151237319Y-110098018D01*
X151184034Y-110051101D01*
X151164573Y-109982824D01*
X151185115Y-109914864D01*
X151239137Y-109868798D01*
X151254362Y-109863137D01*
X151281068Y-109855125D01*
X151495264Y-109750191D01*
X151576492Y-109692252D01*
X151685242Y-109614681D01*
X151689445Y-109611683D01*
X151697020Y-109604135D01*
X151708584Y-109592611D01*
X153444394Y-109592611D01*
X153462999Y-109761135D01*
X153465609Y-109768267D01*
X153486826Y-109826245D01*
X153494500Y-109869546D01*
X153494500Y-111174000D01*
X153494860Y-111177346D01*
X153494860Y-111177351D01*
X153499042Y-111216245D01*
X153501481Y-111238937D01*
X153502199Y-111242237D01*
X153502199Y-111242238D01*
X153512431Y-111289277D01*
X153512435Y-111289292D01*
X153512867Y-111291279D01*
X153513430Y-111293242D01*
X153513432Y-111293250D01*
X153518722Y-111311694D01*
X153523825Y-111329488D01*
X153580504Y-111426401D01*
X153626997Y-111480057D01*
X153671733Y-111522238D01*
X153679761Y-111526320D01*
X153679764Y-111526322D01*
X153766619Y-111570484D01*
X153766623Y-111570485D01*
X153771810Y-111573123D01*
X153777396Y-111574763D01*
X153777398Y-111574764D01*
X153782204Y-111576175D01*
X153839931Y-111593125D01*
X153844387Y-111593766D01*
X153844393Y-111593767D01*
X153879964Y-111598881D01*
X153926000Y-111605500D01*
X155674000Y-111605500D01*
X155677346Y-111605140D01*
X155677351Y-111605140D01*
X155735573Y-111598881D01*
X155735580Y-111598880D01*
X155738937Y-111598519D01*
X155742238Y-111597801D01*
X155789277Y-111587569D01*
X155789292Y-111587565D01*
X155791279Y-111587133D01*
X155793242Y-111586570D01*
X155793250Y-111586568D01*
X155821916Y-111578347D01*
X155821919Y-111578346D01*
X155829488Y-111576175D01*
X155881673Y-111545655D01*
X155921380Y-111522433D01*
X155921384Y-111522430D01*
X155926401Y-111519496D01*
X155980057Y-111473003D01*
X156022238Y-111428267D01*
X156026320Y-111420239D01*
X156026322Y-111420236D01*
X156070484Y-111333381D01*
X156070485Y-111333377D01*
X156073123Y-111328190D01*
X156077077Y-111314726D01*
X156084549Y-111289277D01*
X156093125Y-111260069D01*
X156094147Y-111252965D01*
X156104858Y-111178463D01*
X156105500Y-111174000D01*
X156105500Y-109871940D01*
X156114593Y-109824944D01*
X156128765Y-109789691D01*
X156128767Y-109789684D01*
X156131601Y-109782634D01*
X156155490Y-109614778D01*
X156155645Y-109600000D01*
X156153840Y-109585080D01*
X156148371Y-109539894D01*
X156135276Y-109431680D01*
X156113634Y-109374406D01*
X156105500Y-109329868D01*
X156105500Y-108426000D01*
X156098519Y-108361063D01*
X156092982Y-108335607D01*
X156087569Y-108310723D01*
X156087565Y-108310708D01*
X156087133Y-108308721D01*
X156076175Y-108270512D01*
X156053891Y-108232409D01*
X156022433Y-108178620D01*
X156022430Y-108178616D01*
X156019496Y-108173599D01*
X155973003Y-108119943D01*
X155970687Y-108117759D01*
X155970680Y-108117752D01*
X155941319Y-108090068D01*
X155905477Y-108028783D01*
X155908458Y-107957849D01*
X155945244Y-107903169D01*
X155977652Y-107875087D01*
X155977653Y-107875086D01*
X155980057Y-107873003D01*
X156022238Y-107828267D01*
X156026320Y-107820239D01*
X156026322Y-107820236D01*
X156070484Y-107733381D01*
X156070485Y-107733377D01*
X156073123Y-107728190D01*
X156093125Y-107660069D01*
X156096164Y-107638937D01*
X156100357Y-107609772D01*
X156105500Y-107574000D01*
X156105500Y-106671940D01*
X156114593Y-106624944D01*
X156128765Y-106589691D01*
X156128767Y-106589684D01*
X156131601Y-106582634D01*
X156155490Y-106414778D01*
X156155645Y-106400000D01*
X156153840Y-106385080D01*
X156136188Y-106239220D01*
X156135276Y-106231680D01*
X156113634Y-106174406D01*
X156106022Y-106132727D01*
X156105681Y-106132745D01*
X156105538Y-106130075D01*
X156105500Y-106129868D01*
X156105500Y-106126000D01*
X156098519Y-106061063D01*
X156092982Y-106035607D01*
X156087569Y-106010723D01*
X156087565Y-106010708D01*
X156087133Y-106008721D01*
X156076175Y-105970512D01*
X156019496Y-105873599D01*
X155973003Y-105819943D01*
X155928267Y-105777762D01*
X155920239Y-105773680D01*
X155920236Y-105773678D01*
X155833381Y-105729516D01*
X155833377Y-105729515D01*
X155828190Y-105726877D01*
X155822604Y-105725237D01*
X155822602Y-105725236D01*
X155782400Y-105713432D01*
X155760069Y-105706875D01*
X155755613Y-105706234D01*
X155755607Y-105706233D01*
X155709772Y-105699643D01*
X155674000Y-105694500D01*
X153926000Y-105694500D01*
X153922654Y-105694860D01*
X153922649Y-105694860D01*
X153864427Y-105701119D01*
X153864420Y-105701120D01*
X153861063Y-105701481D01*
X153857763Y-105702199D01*
X153857762Y-105702199D01*
X153810723Y-105712431D01*
X153810708Y-105712435D01*
X153808721Y-105712867D01*
X153806758Y-105713430D01*
X153806750Y-105713432D01*
X153778084Y-105721653D01*
X153778081Y-105721654D01*
X153770512Y-105723825D01*
X153763712Y-105727802D01*
X153678620Y-105777567D01*
X153678616Y-105777570D01*
X153673599Y-105780504D01*
X153619943Y-105826997D01*
X153577762Y-105871733D01*
X153573680Y-105879761D01*
X153573678Y-105879764D01*
X153530994Y-105963712D01*
X153526877Y-105971810D01*
X153506875Y-106039931D01*
X153506234Y-106044387D01*
X153506233Y-106044393D01*
X153503353Y-106064427D01*
X153494500Y-106126000D01*
X153494500Y-106130507D01*
X153494179Y-106134992D01*
X153493396Y-106134936D01*
X153485893Y-106174834D01*
X153466524Y-106224513D01*
X153444394Y-106392611D01*
X153462999Y-106561135D01*
X153465609Y-106568267D01*
X153486826Y-106626245D01*
X153494500Y-106669546D01*
X153494500Y-107574000D01*
X153494860Y-107577346D01*
X153494860Y-107577351D01*
X153499047Y-107616294D01*
X153501481Y-107638937D01*
X153502199Y-107642237D01*
X153502199Y-107642238D01*
X153512431Y-107689277D01*
X153512435Y-107689292D01*
X153512867Y-107691279D01*
X153523825Y-107729488D01*
X153527802Y-107736288D01*
X153570924Y-107810020D01*
X153580504Y-107826401D01*
X153626997Y-107880057D01*
X153629311Y-107882239D01*
X153629320Y-107882248D01*
X153658681Y-107909932D01*
X153694523Y-107971217D01*
X153691542Y-108042151D01*
X153654756Y-108096831D01*
X153622348Y-108124913D01*
X153619943Y-108126997D01*
X153577762Y-108171733D01*
X153573680Y-108179761D01*
X153573678Y-108179764D01*
X153530994Y-108263712D01*
X153526877Y-108271810D01*
X153506875Y-108339931D01*
X153506234Y-108344387D01*
X153506233Y-108344393D01*
X153503353Y-108364427D01*
X153494500Y-108426000D01*
X153494500Y-109329065D01*
X153485893Y-109374834D01*
X153466524Y-109424513D01*
X153465532Y-109432046D01*
X153465532Y-109432047D01*
X153451849Y-109535987D01*
X153444394Y-109592611D01*
X151708584Y-109592611D01*
X151854736Y-109446968D01*
X151858397Y-109443320D01*
X151866498Y-109432047D01*
X151994564Y-109253823D01*
X151997582Y-109249623D01*
X152046106Y-109151444D01*
X152100969Y-109040437D01*
X152100970Y-109040435D01*
X152103263Y-109035795D01*
X152172600Y-108807577D01*
X152184204Y-108719439D01*
X152203296Y-108574421D01*
X152203297Y-108574414D01*
X152203733Y-108571099D01*
X152204065Y-108557513D01*
X152205389Y-108503364D01*
X152205389Y-108503360D01*
X152205471Y-108500000D01*
X152192311Y-108339931D01*
X152186351Y-108267435D01*
X152186350Y-108267429D01*
X152185927Y-108262284D01*
X152149626Y-108117761D01*
X152129080Y-108035963D01*
X152129079Y-108035959D01*
X152127821Y-108030952D01*
X152124722Y-108023825D01*
X152034772Y-107816953D01*
X152034770Y-107816950D01*
X152032712Y-107812216D01*
X151903155Y-107611951D01*
X151874360Y-107580305D01*
X151746107Y-107439358D01*
X151746105Y-107439357D01*
X151742629Y-107435536D01*
X151738578Y-107432337D01*
X151738574Y-107432333D01*
X151559500Y-107290909D01*
X151559496Y-107290907D01*
X151555445Y-107287707D01*
X151516125Y-107266001D01*
X151499682Y-107256924D01*
X151346631Y-107172436D01*
X151341762Y-107170712D01*
X151341758Y-107170710D01*
X151126663Y-107094541D01*
X151126661Y-107094540D01*
X151121794Y-107092817D01*
X151004383Y-107071903D01*
X150892060Y-107051894D01*
X150892056Y-107051894D01*
X150886972Y-107050988D01*
X150803140Y-107049964D01*
X150653640Y-107048137D01*
X150653638Y-107048137D01*
X150648471Y-107048074D01*
X150412698Y-107084153D01*
X150185982Y-107158255D01*
X150181394Y-107160643D01*
X150181390Y-107160645D01*
X149979003Y-107266001D01*
X149974414Y-107268390D01*
X149970281Y-107271493D01*
X149970278Y-107271495D01*
X149787810Y-107408497D01*
X149783675Y-107411602D01*
X149780103Y-107415340D01*
X149668773Y-107531840D01*
X149618887Y-107584042D01*
X149615973Y-107588314D01*
X149615972Y-107588315D01*
X149567025Y-107660069D01*
X149484475Y-107781082D01*
X149454629Y-107845380D01*
X149388830Y-107987133D01*
X149384051Y-107997428D01*
X149320309Y-108227272D01*
X149319760Y-108232409D01*
X149295850Y-108456142D01*
X149294963Y-108464440D01*
X147605500Y-108464440D01*
X147605500Y-108426000D01*
X147598519Y-108361063D01*
X147592982Y-108335607D01*
X147587569Y-108310723D01*
X147587565Y-108310708D01*
X147587133Y-108308721D01*
X147576175Y-108270512D01*
X147553891Y-108232409D01*
X147522433Y-108178620D01*
X147522430Y-108178616D01*
X147519496Y-108173599D01*
X147473003Y-108119943D01*
X147448491Y-108096831D01*
X147434826Y-108083946D01*
X147434824Y-108083945D01*
X147428267Y-108077762D01*
X147427189Y-108077214D01*
X147385444Y-108024740D01*
X147378298Y-107954104D01*
X147410475Y-107890818D01*
X147419638Y-107882032D01*
X147427649Y-107875090D01*
X147427654Y-107875085D01*
X147430057Y-107873003D01*
X147472238Y-107828267D01*
X147476320Y-107820239D01*
X147476322Y-107820236D01*
X147520484Y-107733381D01*
X147520485Y-107733377D01*
X147523123Y-107728190D01*
X147543125Y-107660069D01*
X147546164Y-107638937D01*
X147550357Y-107609772D01*
X147555500Y-107574000D01*
X147555500Y-106671940D01*
X147564593Y-106624944D01*
X147578765Y-106589691D01*
X147578767Y-106589684D01*
X147581601Y-106582634D01*
X147605490Y-106414778D01*
X147605645Y-106400000D01*
X147603840Y-106385080D01*
X147586188Y-106239220D01*
X147585276Y-106231680D01*
X147563634Y-106174406D01*
X147556022Y-106132727D01*
X147555681Y-106132745D01*
X147555538Y-106130075D01*
X147555500Y-106129868D01*
X147555500Y-106126000D01*
X147548519Y-106061063D01*
X147542982Y-106035607D01*
X147537569Y-106010723D01*
X147537565Y-106010708D01*
X147537133Y-106008721D01*
X147526175Y-105970512D01*
X147469496Y-105873599D01*
X147423003Y-105819943D01*
X147378267Y-105777762D01*
X147370239Y-105773680D01*
X147370236Y-105773678D01*
X147283381Y-105729516D01*
X147283377Y-105729515D01*
X147278190Y-105726877D01*
X147272604Y-105725237D01*
X147272602Y-105725236D01*
X147232400Y-105713432D01*
X147210069Y-105706875D01*
X147205613Y-105706234D01*
X147205607Y-105706233D01*
X147159772Y-105699643D01*
X147124000Y-105694500D01*
X145376000Y-105694500D01*
X145372654Y-105694860D01*
X145372649Y-105694860D01*
X145314427Y-105701119D01*
X145314420Y-105701120D01*
X145311063Y-105701481D01*
X145307763Y-105702199D01*
X145307762Y-105702199D01*
X145260723Y-105712431D01*
X145260708Y-105712435D01*
X145258721Y-105712867D01*
X145256758Y-105713430D01*
X145256750Y-105713432D01*
X145228084Y-105721653D01*
X145228081Y-105721654D01*
X145220512Y-105723825D01*
X145213712Y-105727802D01*
X145128620Y-105777567D01*
X145128616Y-105777570D01*
X145123599Y-105780504D01*
X145069943Y-105826997D01*
X145027762Y-105871733D01*
X145023680Y-105879761D01*
X145023678Y-105879764D01*
X144980994Y-105963712D01*
X144976877Y-105971810D01*
X144956875Y-106039931D01*
X144956234Y-106044387D01*
X144956233Y-106044393D01*
X144953353Y-106064427D01*
X144944500Y-106126000D01*
X144944500Y-106130507D01*
X144944179Y-106134992D01*
X144943396Y-106134936D01*
X144935893Y-106174834D01*
X144916524Y-106224513D01*
X144894394Y-106392611D01*
X143800500Y-106392611D01*
X143800500Y-104980421D01*
X149808567Y-104980421D01*
X149815354Y-104990122D01*
X149832351Y-105004638D01*
X149840333Y-105010438D01*
X150039919Y-105132745D01*
X150048713Y-105137226D01*
X150264970Y-105226802D01*
X150274355Y-105229851D01*
X150501964Y-105284496D01*
X150511711Y-105286039D01*
X150745070Y-105304405D01*
X150754930Y-105304405D01*
X150988289Y-105286039D01*
X150998036Y-105284496D01*
X151225645Y-105229851D01*
X151235030Y-105226802D01*
X151451287Y-105137226D01*
X151460081Y-105132745D01*
X151659667Y-105010438D01*
X151667649Y-105004638D01*
X151683076Y-104991463D01*
X151691506Y-104978549D01*
X151685499Y-104968342D01*
X150762812Y-104045655D01*
X150748868Y-104038041D01*
X150747035Y-104038172D01*
X150740420Y-104042423D01*
X149815959Y-104966884D01*
X149808567Y-104980421D01*
X143800500Y-104980421D01*
X143800500Y-103754930D01*
X149195595Y-103754930D01*
X149213961Y-103988289D01*
X149215504Y-103998036D01*
X149270149Y-104225645D01*
X149273198Y-104235030D01*
X149362774Y-104451287D01*
X149367255Y-104460081D01*
X149489562Y-104659667D01*
X149495362Y-104667649D01*
X149508537Y-104683076D01*
X149521451Y-104691506D01*
X149531658Y-104685499D01*
X150454345Y-103762812D01*
X150460723Y-103751132D01*
X151038041Y-103751132D01*
X151038172Y-103752965D01*
X151042423Y-103759580D01*
X151966884Y-104684041D01*
X151980421Y-104691433D01*
X151990122Y-104684646D01*
X152004638Y-104667649D01*
X152010438Y-104659667D01*
X152132745Y-104460081D01*
X152137226Y-104451287D01*
X152226802Y-104235030D01*
X152229851Y-104225645D01*
X152284496Y-103998036D01*
X152286039Y-103988289D01*
X152304405Y-103754930D01*
X152304405Y-103745070D01*
X152286039Y-103511711D01*
X152284496Y-103501964D01*
X152229851Y-103274355D01*
X152226802Y-103264970D01*
X152137226Y-103048713D01*
X152132745Y-103039919D01*
X152010438Y-102840333D01*
X152004638Y-102832351D01*
X151991463Y-102816924D01*
X151978549Y-102808494D01*
X151968342Y-102814501D01*
X151045655Y-103737188D01*
X151038041Y-103751132D01*
X150460723Y-103751132D01*
X150461959Y-103748868D01*
X150461828Y-103747035D01*
X150457577Y-103740420D01*
X149533116Y-102815959D01*
X149519579Y-102808567D01*
X149509878Y-102815354D01*
X149495362Y-102832351D01*
X149489562Y-102840333D01*
X149367255Y-103039919D01*
X149362774Y-103048713D01*
X149273198Y-103264970D01*
X149270149Y-103274355D01*
X149215504Y-103501964D01*
X149213961Y-103511711D01*
X149195595Y-103745070D01*
X149195595Y-103754930D01*
X143800500Y-103754930D01*
X143800500Y-102521451D01*
X149808494Y-102521451D01*
X149814501Y-102531658D01*
X150737188Y-103454345D01*
X150751132Y-103461959D01*
X150752965Y-103461828D01*
X150759580Y-103457577D01*
X151684041Y-102533116D01*
X151691433Y-102519579D01*
X151684646Y-102509878D01*
X151667649Y-102495362D01*
X151659667Y-102489562D01*
X151460081Y-102367255D01*
X151451287Y-102362774D01*
X151235030Y-102273198D01*
X151225645Y-102270149D01*
X150998036Y-102215504D01*
X150988289Y-102213961D01*
X150754930Y-102195595D01*
X150745070Y-102195595D01*
X150511711Y-102213961D01*
X150501964Y-102215504D01*
X150274355Y-102270149D01*
X150264970Y-102273198D01*
X150048713Y-102362774D01*
X150039919Y-102367255D01*
X149840333Y-102489562D01*
X149832351Y-102495362D01*
X149816924Y-102508537D01*
X149808494Y-102521451D01*
X143800500Y-102521451D01*
X143800500Y-100886428D01*
X148352351Y-100886428D01*
X148359809Y-100896797D01*
X148628493Y-101114372D01*
X148633844Y-101118260D01*
X148944761Y-101320172D01*
X148950471Y-101323469D01*
X149280799Y-101491779D01*
X149286824Y-101494461D01*
X149632922Y-101627316D01*
X149639204Y-101629357D01*
X149997302Y-101725308D01*
X150003752Y-101726679D01*
X150369933Y-101784678D01*
X150376471Y-101785364D01*
X150746699Y-101804767D01*
X150753301Y-101804767D01*
X151123529Y-101785364D01*
X151130067Y-101784678D01*
X151496248Y-101726679D01*
X151502698Y-101725308D01*
X151860796Y-101629357D01*
X151867078Y-101627316D01*
X152213176Y-101494461D01*
X152219201Y-101491779D01*
X152549529Y-101323469D01*
X152555239Y-101320172D01*
X152866156Y-101118260D01*
X152871507Y-101114372D01*
X153139240Y-100897566D01*
X153147708Y-100885308D01*
X153141375Y-100874218D01*
X150762812Y-98495655D01*
X150748868Y-98488041D01*
X150747035Y-98488172D01*
X150740420Y-98492423D01*
X148359491Y-100873352D01*
X148352351Y-100886428D01*
X143800500Y-100886428D01*
X143800500Y-99755452D01*
X143820502Y-99687331D01*
X143874158Y-99640838D01*
X143944432Y-99630734D01*
X144009012Y-99660228D01*
X144029713Y-99683182D01*
X144161505Y-99871401D01*
X144328599Y-100038495D01*
X144522171Y-100174035D01*
X144527149Y-100176356D01*
X144527152Y-100176358D01*
X144731355Y-100271580D01*
X144736337Y-100273903D01*
X144741645Y-100275325D01*
X144741647Y-100275326D01*
X144959277Y-100333639D01*
X144964592Y-100335063D01*
X145067682Y-100344082D01*
X145138310Y-100350262D01*
X145138317Y-100350262D01*
X145141034Y-100350500D01*
X145258966Y-100350500D01*
X145261683Y-100350262D01*
X145261690Y-100350262D01*
X145332318Y-100344082D01*
X145435408Y-100335063D01*
X145440723Y-100333639D01*
X145658353Y-100275326D01*
X145658355Y-100275325D01*
X145663663Y-100273903D01*
X145668645Y-100271580D01*
X145872848Y-100176358D01*
X145872851Y-100176356D01*
X145877829Y-100174035D01*
X146071401Y-100038495D01*
X146238495Y-99871401D01*
X146241655Y-99866889D01*
X146370878Y-99682339D01*
X146370881Y-99682334D01*
X146374035Y-99677830D01*
X146376358Y-99672848D01*
X146376361Y-99672843D01*
X146471580Y-99468645D01*
X146471581Y-99468644D01*
X146473903Y-99463663D01*
X146479793Y-99441683D01*
X146533639Y-99240723D01*
X146533639Y-99240722D01*
X146535063Y-99235408D01*
X146555659Y-99000000D01*
X146535063Y-98764592D01*
X146484665Y-98576500D01*
X146475326Y-98541647D01*
X146475325Y-98541645D01*
X146473903Y-98536337D01*
X146454933Y-98495655D01*
X146376358Y-98327152D01*
X146376356Y-98327149D01*
X146374035Y-98322171D01*
X146290802Y-98203301D01*
X147145233Y-98203301D01*
X147164636Y-98573529D01*
X147165322Y-98580067D01*
X147223321Y-98946248D01*
X147224692Y-98952698D01*
X147320643Y-99310796D01*
X147322684Y-99317078D01*
X147455539Y-99663176D01*
X147458221Y-99669201D01*
X147626531Y-99999529D01*
X147629828Y-100005239D01*
X147831740Y-100316156D01*
X147835628Y-100321507D01*
X148052434Y-100589240D01*
X148064692Y-100597708D01*
X148075782Y-100591375D01*
X150454345Y-98212812D01*
X150460723Y-98201132D01*
X151038041Y-98201132D01*
X151038172Y-98202965D01*
X151042423Y-98209580D01*
X153423352Y-100590509D01*
X153436428Y-100597649D01*
X153446797Y-100590191D01*
X153664372Y-100321507D01*
X153668260Y-100316156D01*
X153870172Y-100005239D01*
X153873469Y-99999529D01*
X154041779Y-99669201D01*
X154044461Y-99663176D01*
X154177316Y-99317078D01*
X154179357Y-99310796D01*
X154275308Y-98952698D01*
X154276679Y-98946248D01*
X154334678Y-98580067D01*
X154335364Y-98573529D01*
X154354767Y-98203301D01*
X154354767Y-98196699D01*
X154335364Y-97826471D01*
X154334678Y-97819933D01*
X154276679Y-97453752D01*
X154275308Y-97447302D01*
X154179357Y-97089204D01*
X154177316Y-97082922D01*
X154044461Y-96736824D01*
X154041779Y-96730799D01*
X153873469Y-96400471D01*
X153870172Y-96394761D01*
X153668260Y-96083844D01*
X153664372Y-96078493D01*
X153447566Y-95810760D01*
X153435308Y-95802292D01*
X153424218Y-95808625D01*
X151045655Y-98187188D01*
X151038041Y-98201132D01*
X150460723Y-98201132D01*
X150461959Y-98198868D01*
X150461828Y-98197035D01*
X150457577Y-98190420D01*
X148076648Y-95809491D01*
X148063572Y-95802351D01*
X148053203Y-95809809D01*
X147835628Y-96078493D01*
X147831740Y-96083844D01*
X147629828Y-96394761D01*
X147626531Y-96400471D01*
X147458221Y-96730799D01*
X147455539Y-96736824D01*
X147322684Y-97082922D01*
X147320643Y-97089204D01*
X147224692Y-97447302D01*
X147223321Y-97453752D01*
X147165322Y-97819933D01*
X147164636Y-97826471D01*
X147145233Y-98196699D01*
X147145233Y-98203301D01*
X146290802Y-98203301D01*
X146238495Y-98128599D01*
X146071401Y-97961505D01*
X145877829Y-97825965D01*
X145872851Y-97823644D01*
X145872848Y-97823642D01*
X145668645Y-97728420D01*
X145668643Y-97728419D01*
X145663663Y-97726097D01*
X145658355Y-97724675D01*
X145658353Y-97724674D01*
X145440723Y-97666361D01*
X145440722Y-97666361D01*
X145435408Y-97664937D01*
X145332318Y-97655918D01*
X145261690Y-97649738D01*
X145261683Y-97649738D01*
X145258966Y-97649500D01*
X145141034Y-97649500D01*
X145138317Y-97649738D01*
X145138310Y-97649738D01*
X145067682Y-97655918D01*
X144964592Y-97664937D01*
X144959278Y-97666361D01*
X144959277Y-97666361D01*
X144741647Y-97724674D01*
X144741645Y-97724675D01*
X144736337Y-97726097D01*
X144731357Y-97728419D01*
X144731355Y-97728420D01*
X144527152Y-97823642D01*
X144527149Y-97823644D01*
X144522171Y-97825965D01*
X144328599Y-97961505D01*
X144161505Y-98128599D01*
X144158348Y-98133107D01*
X144158346Y-98133110D01*
X144029713Y-98316817D01*
X143974256Y-98361145D01*
X143903636Y-98368454D01*
X143840276Y-98336423D01*
X143804291Y-98275222D01*
X143800500Y-98244546D01*
X143800500Y-96097980D01*
X143802415Y-96076097D01*
X143803221Y-96071525D01*
X143803221Y-96071524D01*
X143805136Y-96060668D01*
X143803222Y-96049810D01*
X143803222Y-96038788D01*
X143803779Y-96038788D01*
X143803189Y-96026509D01*
X143814494Y-95882916D01*
X143817587Y-95863388D01*
X143856901Y-95699652D01*
X143863011Y-95680849D01*
X143926886Y-95526648D01*
X143927454Y-95525277D01*
X143936428Y-95507666D01*
X144024416Y-95364089D01*
X144036037Y-95348094D01*
X144068260Y-95310367D01*
X144145403Y-95220047D01*
X144159374Y-95206077D01*
X144287425Y-95096714D01*
X144303412Y-95085099D01*
X144446994Y-94997113D01*
X144464609Y-94988138D01*
X144511695Y-94968635D01*
X144620177Y-94923701D01*
X144638976Y-94917593D01*
X144802718Y-94878282D01*
X144822244Y-94875189D01*
X144966004Y-94863875D01*
X144978122Y-94864458D01*
X144978122Y-94863881D01*
X144989142Y-94863881D01*
X145000000Y-94865796D01*
X145010855Y-94863882D01*
X145010856Y-94863882D01*
X145015437Y-94863074D01*
X145037317Y-94861160D01*
X148856111Y-94861160D01*
X148924232Y-94881162D01*
G37*
%TD.AperFunction*%
%TD*%
%TA.AperFunction,Conductor*%
%TO.N,/vcc*%
G36*
X147192121Y-106020002D02*
G01*
X147238614Y-106073658D01*
X147250000Y-106126000D01*
X147250000Y-107574000D01*
X147229998Y-107642121D01*
X147176342Y-107688614D01*
X147124000Y-107700000D01*
X145376000Y-107700000D01*
X145307879Y-107679998D01*
X145261386Y-107626342D01*
X145250000Y-107574000D01*
X145250000Y-106126000D01*
X145270002Y-106057879D01*
X145323658Y-106011386D01*
X145376000Y-106000000D01*
X147124000Y-106000000D01*
X147192121Y-106020002D01*
G37*
%TD.AperFunction*%
%TD*%
%TA.AperFunction,Conductor*%
%TO.N,/vcc*%
G36*
X155742121Y-106020002D02*
G01*
X155788614Y-106073658D01*
X155800000Y-106126000D01*
X155800000Y-107574000D01*
X155779998Y-107642121D01*
X155726342Y-107688614D01*
X155674000Y-107700000D01*
X153926000Y-107700000D01*
X153857879Y-107679998D01*
X153811386Y-107626342D01*
X153800000Y-107574000D01*
X153800000Y-106126000D01*
X153820002Y-106057879D01*
X153873658Y-106011386D01*
X153926000Y-106000000D01*
X155674000Y-106000000D01*
X155742121Y-106020002D01*
G37*
%TD.AperFunction*%
%TD*%
%TA.AperFunction,Conductor*%
%TO.N,/r to d 1*%
G36*
X147242121Y-108320002D02*
G01*
X147288614Y-108373658D01*
X147300000Y-108426000D01*
X147300000Y-111174000D01*
X147279998Y-111242121D01*
X147226342Y-111288614D01*
X147174000Y-111300000D01*
X145426000Y-111300000D01*
X145357879Y-111279998D01*
X145311386Y-111226342D01*
X145300000Y-111174000D01*
X145300000Y-108426000D01*
X145320002Y-108357879D01*
X145373658Y-108311386D01*
X145426000Y-108300000D01*
X147174000Y-108300000D01*
X147242121Y-108320002D01*
G37*
%TD.AperFunction*%
%TD*%
%TA.AperFunction,Conductor*%
%TO.N,/r to d 2*%
G36*
X155742121Y-108320002D02*
G01*
X155788614Y-108373658D01*
X155800000Y-108426000D01*
X155800000Y-111174000D01*
X155779998Y-111242121D01*
X155726342Y-111288614D01*
X155674000Y-111300000D01*
X153926000Y-111300000D01*
X153857879Y-111279998D01*
X153811386Y-111226342D01*
X153800000Y-111174000D01*
X153800000Y-108426000D01*
X153820002Y-108357879D01*
X153873658Y-108311386D01*
X153926000Y-108300000D01*
X155674000Y-108300000D01*
X155742121Y-108320002D01*
G37*
%TD.AperFunction*%
%TD*%
M02*
