%TF.GenerationSoftware,KiCad,Pcbnew,(6.0.11)*%
%TF.CreationDate,2023-02-04T21:56:39-06:00*%
%TF.ProjectId,Euclid Reverse Engineer,4575636c-6964-4205-9265-766572736520,rev?*%
%TF.SameCoordinates,Original*%
%TF.FileFunction,Legend,Top*%
%TF.FilePolarity,Positive*%
%FSLAX46Y46*%
G04 Gerber Fmt 4.6, Leading zero omitted, Abs format (unit mm)*
G04 Created by KiCad (PCBNEW (6.0.11)) date 2023-02-04 21:56:39*
%MOMM*%
%LPD*%
G01*
G04 APERTURE LIST*
%ADD10C,0.150000*%
G04 APERTURE END LIST*
D10*
X156178571Y-109297619D02*
X156226190Y-109154761D01*
X156273809Y-109107142D01*
X156369047Y-109059523D01*
X156511904Y-109059523D01*
X156607142Y-109107142D01*
X156654761Y-109154761D01*
X156702380Y-109250000D01*
X156702380Y-109630952D01*
X155702380Y-109630952D01*
X155702380Y-109297619D01*
X155750000Y-109202380D01*
X155797619Y-109154761D01*
X155892857Y-109107142D01*
X155988095Y-109107142D01*
X156083333Y-109154761D01*
X156130952Y-109202380D01*
X156178571Y-109297619D01*
X156178571Y-109630952D01*
X156035714Y-108726190D02*
X156702380Y-108488095D01*
X156035714Y-108250000D02*
X156702380Y-108488095D01*
X156940476Y-108583333D01*
X156988095Y-108630952D01*
X157035714Y-108726190D01*
X156607142Y-107869047D02*
X156654761Y-107821428D01*
X156702380Y-107869047D01*
X156654761Y-107916666D01*
X156607142Y-107869047D01*
X156702380Y-107869047D01*
X156083333Y-107869047D02*
X156130952Y-107821428D01*
X156178571Y-107869047D01*
X156130952Y-107916666D01*
X156083333Y-107869047D01*
X156178571Y-107869047D01*
X156702380Y-106630952D02*
X155702380Y-106630952D01*
X155702380Y-106392857D01*
X155750000Y-106250000D01*
X155845238Y-106154761D01*
X155940476Y-106107142D01*
X156130952Y-106059523D01*
X156273809Y-106059523D01*
X156464285Y-106107142D01*
X156559523Y-106154761D01*
X156654761Y-106250000D01*
X156702380Y-106392857D01*
X156702380Y-106630952D01*
X156702380Y-105202380D02*
X156178571Y-105202380D01*
X156083333Y-105250000D01*
X156035714Y-105345238D01*
X156035714Y-105535714D01*
X156083333Y-105630952D01*
X156654761Y-105202380D02*
X156702380Y-105297619D01*
X156702380Y-105535714D01*
X156654761Y-105630952D01*
X156559523Y-105678571D01*
X156464285Y-105678571D01*
X156369047Y-105630952D01*
X156321428Y-105535714D01*
X156321428Y-105297619D01*
X156273809Y-105202380D01*
X156702380Y-104297619D02*
X155702380Y-104297619D01*
X156654761Y-104297619D02*
X156702380Y-104392857D01*
X156702380Y-104583333D01*
X156654761Y-104678571D01*
X156607142Y-104726190D01*
X156511904Y-104773809D01*
X156226190Y-104773809D01*
X156130952Y-104726190D01*
X156083333Y-104678571D01*
X156035714Y-104583333D01*
X156035714Y-104392857D01*
X156083333Y-104297619D01*
X156702380Y-103392857D02*
X155702380Y-103392857D01*
X156654761Y-103392857D02*
X156702380Y-103488095D01*
X156702380Y-103678571D01*
X156654761Y-103773809D01*
X156607142Y-103821428D01*
X156511904Y-103869047D01*
X156226190Y-103869047D01*
X156130952Y-103821428D01*
X156083333Y-103773809D01*
X156035714Y-103678571D01*
X156035714Y-103488095D01*
X156083333Y-103392857D01*
X156035714Y-103011904D02*
X156702380Y-102773809D01*
X156035714Y-102535714D02*
X156702380Y-102773809D01*
X156940476Y-102869047D01*
X156988095Y-102916666D01*
X157035714Y-103011904D01*
X155750000Y-100869047D02*
X155702380Y-100964285D01*
X155702380Y-101107142D01*
X155750000Y-101250000D01*
X155845238Y-101345238D01*
X155940476Y-101392857D01*
X156130952Y-101440476D01*
X156273809Y-101440476D01*
X156464285Y-101392857D01*
X156559523Y-101345238D01*
X156654761Y-101250000D01*
X156702380Y-101107142D01*
X156702380Y-101011904D01*
X156654761Y-100869047D01*
X156607142Y-100821428D01*
X156273809Y-100821428D01*
X156273809Y-101011904D01*
%TO.C,J1*%
X150152380Y-106533333D02*
X150866666Y-106533333D01*
X151009523Y-106580952D01*
X151104761Y-106676190D01*
X151152380Y-106819047D01*
X151152380Y-106914285D01*
X151152380Y-105533333D02*
X151152380Y-106104761D01*
X151152380Y-105819047D02*
X150152380Y-105819047D01*
X150295238Y-105914285D01*
X150390476Y-106009523D01*
X150438095Y-106104761D01*
X155004761Y-116038095D02*
X155052380Y-115895238D01*
X155052380Y-115657142D01*
X155004761Y-115561904D01*
X154957142Y-115514285D01*
X154861904Y-115466666D01*
X154766666Y-115466666D01*
X154671428Y-115514285D01*
X154623809Y-115561904D01*
X154576190Y-115657142D01*
X154528571Y-115847619D01*
X154480952Y-115942857D01*
X154433333Y-115990476D01*
X154338095Y-116038095D01*
X154242857Y-116038095D01*
X154147619Y-115990476D01*
X154100000Y-115942857D01*
X154052380Y-115847619D01*
X154052380Y-115609523D01*
X154100000Y-115466666D01*
X155052380Y-115038095D02*
X154052380Y-115038095D01*
X154100000Y-114038095D02*
X154052380Y-114133333D01*
X154052380Y-114276190D01*
X154100000Y-114419047D01*
X154195238Y-114514285D01*
X154290476Y-114561904D01*
X154480952Y-114609523D01*
X154623809Y-114609523D01*
X154814285Y-114561904D01*
X154909523Y-114514285D01*
X155004761Y-114419047D01*
X155052380Y-114276190D01*
X155052380Y-114180952D01*
X155004761Y-114038095D01*
X154957142Y-113990476D01*
X154623809Y-113990476D01*
X154623809Y-114180952D01*
X154100000Y-112276190D02*
X154052380Y-112371428D01*
X154052380Y-112514285D01*
X154100000Y-112657142D01*
X154195238Y-112752380D01*
X154290476Y-112800000D01*
X154480952Y-112847619D01*
X154623809Y-112847619D01*
X154814285Y-112800000D01*
X154909523Y-112752380D01*
X155004761Y-112657142D01*
X155052380Y-112514285D01*
X155052380Y-112419047D01*
X155004761Y-112276190D01*
X154957142Y-112228571D01*
X154623809Y-112228571D01*
X154623809Y-112419047D01*
X155052380Y-111800000D02*
X154052380Y-111800000D01*
X155052380Y-111228571D01*
X154052380Y-111228571D01*
X155052380Y-110752380D02*
X154052380Y-110752380D01*
X154052380Y-110514285D01*
X154100000Y-110371428D01*
X154195238Y-110276190D01*
X154290476Y-110228571D01*
X154480952Y-110180952D01*
X154623809Y-110180952D01*
X154814285Y-110228571D01*
X154909523Y-110276190D01*
X155004761Y-110371428D01*
X155052380Y-110514285D01*
X155052380Y-110752380D01*
X154052380Y-109133333D02*
X155052380Y-108800000D01*
X154052380Y-108466666D01*
X154957142Y-107561904D02*
X155004761Y-107609523D01*
X155052380Y-107752380D01*
X155052380Y-107847619D01*
X155004761Y-107990476D01*
X154909523Y-108085714D01*
X154814285Y-108133333D01*
X154623809Y-108180952D01*
X154480952Y-108180952D01*
X154290476Y-108133333D01*
X154195238Y-108085714D01*
X154100000Y-107990476D01*
X154052380Y-107847619D01*
X154052380Y-107752380D01*
X154100000Y-107609523D01*
X154147619Y-107561904D01*
X154957142Y-106561904D02*
X155004761Y-106609523D01*
X155052380Y-106752380D01*
X155052380Y-106847619D01*
X155004761Y-106990476D01*
X154909523Y-107085714D01*
X154814285Y-107133333D01*
X154623809Y-107180952D01*
X154480952Y-107180952D01*
X154290476Y-107133333D01*
X154195238Y-107085714D01*
X154100000Y-106990476D01*
X154052380Y-106847619D01*
X154052380Y-106752380D01*
X154100000Y-106609523D01*
X154147619Y-106561904D01*
%TO.C,H2*%
X145738095Y-97302380D02*
X145738095Y-96302380D01*
X145738095Y-96778571D02*
X146309523Y-96778571D01*
X146309523Y-97302380D02*
X146309523Y-96302380D01*
X146738095Y-96397619D02*
X146785714Y-96350000D01*
X146880952Y-96302380D01*
X147119047Y-96302380D01*
X147214285Y-96350000D01*
X147261904Y-96397619D01*
X147309523Y-96492857D01*
X147309523Y-96588095D01*
X147261904Y-96730952D01*
X146690476Y-97302380D01*
X147309523Y-97302380D01*
%TO.C,H1*%
X146538095Y-116852380D02*
X146538095Y-115852380D01*
X146538095Y-116328571D02*
X147109523Y-116328571D01*
X147109523Y-116852380D02*
X147109523Y-115852380D01*
X148109523Y-116852380D02*
X147538095Y-116852380D01*
X147823809Y-116852380D02*
X147823809Y-115852380D01*
X147728571Y-115995238D01*
X147633333Y-116090476D01*
X147538095Y-116138095D01*
%TD*%
M02*
